<?xml version="1.0" encoding="UTF-8"?>
<svg width="8px" height="14px" viewBox="0 0 8 14" version="1.1" xmlns="http://www.w3.org/2000/svg" xmlns:xlink="http://www.w3.org/1999/xlink">
    <!-- Generator: Sketch 63 (92445) - https://sketch.com -->
    <title>返 回@2x</title>
    <desc>Created with Sketch.</desc>
    <g id="Page-1" stroke="none" stroke-width="1" fill="none" fill-rule="evenodd">
        <g id="人员管理-新增/编辑" transform="translate(-322.000000, -25.000000)" fill="#FFFFFF" fill-rule="nonzero">
            <g id="编组" transform="translate(235.000000, 0.000000)">
                <g id="返-回" transform="translate(87.000000, 25.000000)">
                    <path d="M0.224796875,6.20025 C0.272156262,6.1479256 0.328694866,6.10349006 0.392,6.06883958 L6.648,0.224670833 C6.79413127,0.0834774874 6.99526262,0.00348785912 7.20559375,0.00291666667 C7.40559375,0.00291666667 7.60559375,0.0768395833 7.7648125,0.217204167 C8.07440625,0.5009375 8.07759375,0.963870833 7.77279687,1.25209583 L1.91040625,6.729625 L7.76640625,12.18105 C8.07369074,12.4684171 8.07725153,12.9326941 7.77440625,13.2241375 C7.47359375,13.5145937 6.97440625,13.5145937 6.66479687,13.2316042 L0.328,7.33220833 C0.111211428,7.1875365 -0.0115443002,6.94965579 0.00240625,6.70126042 L0.00240625,6.67886042 C0.0115357219,6.49949891 0.0903037626,6.32937134 0.224,6.20025 L0.224796875,6.20025 Z" id="路径"></path>
                </g>
            </g>
        </g>
    </g>
</svg>