<?xml version="1.0" encoding="UTF-8"?>
<svg width="30px" height="30px" viewBox="0 0 30 30" version="1.1" xmlns="http://www.w3.org/2000/svg" xmlns:xlink="http://www.w3.org/1999/xlink">
    <!-- Generator: Sketch 63 (92445) - https://sketch.com -->
    <title>添加@1x</title>
    <desc>Created with Sketch.</desc>
    <g id="Welcome" stroke="none" stroke-width="1" fill="none" fill-rule="evenodd">
        <g id="麦当劳叔叔之家-新增" transform="translate(-514.000000, -591.000000)">
            <g id="编组-2" transform="translate(454.000000, 571.000000)">
                <g id="添加" transform="translate(60.000000, 20.000000)">
                    <g>
                        <path d="M28.8198183,9.16235951 C28.0633004,7.3745426 26.9851509,5.77113826 25.6050706,4.39492943 C24.2288617,3.01891662 22.6254574,1.93674856 20.8376405,1.17998562 C18.9872419,0.395876895 17.0229515,0 14.999902,0 C12.9770485,0 11.0127581,0.395876895 9.16235951,1.17998562 C7.3745426,1.93674856 5.77113826,3.01489807 4.39492943,4.39492943 C3.01891662,5.77113826 1.93674856,7.3745426 1.17998562,9.16235951 C0.395876895,11.0127581 0,12.9770485 0,14.999902 C0,17.0229515 0.395876895,18.9872419 1.17998562,20.8376405 C1.93674856,22.6254574 3.01489807,24.2288617 4.39492943,25.6050706 C5.77113826,26.9811324 7.3745426,28.0633004 9.16235951,28.8198183 C11.0127581,29.6039271 12.9770485,30 14.999902,30 C17.0229515,30 18.9872419,29.6039271 20.8376405,28.8198183 C22.6254574,28.0633004 24.2288617,26.9851509 25.6050706,25.6050706 C26.9811324,24.2288617 28.0633004,22.6254574 28.8198183,20.8376405 C29.6039271,18.9872419 30,17.0229515 30,14.999902 C30,12.9770485 29.6001045,11.0127581 28.8198183,9.16235951 Z" id="路径" fill="#FAB400"></path>
                        <path d="M15.8680914,14.2649755 L15.8680914,6.21132137 C15.8680914,5.78079935 15.5157749,5.42828711 15.0850571,5.42828711 C14.6545351,5.42828711 14.3020228,5.78079935 14.3020228,6.21132137 L14.3020228,14.2649755 L6.24861338,14.2649755 C5.8178956,14.2649755 5.46557912,14.617292 5.46557912,15.0480098 C5.46557912,15.4786786 5.8178956,15.831044 6.24861338,15.831044 L14.3020228,15.827031 L14.3020228,23.8844535 C14.3020228,24.3151713 14.6545351,24.6674878 15.0850571,24.6674878 C15.5157749,24.6674878 15.8680914,24.3151713 15.8680914,23.8844535 L15.8290865,15.831044 L23.9217455,15.831044 C24.3524633,15.831044 24.7047798,15.4786786 24.7047798,15.0480098 C24.7047798,14.617292 24.3524633,14.2649755 23.9217455,14.2649755 L15.8680914,14.2649755 Z" id="Fill-2" fill="#FFFFFF"></path>
                    </g>
                </g>
            </g>
        </g>
    </g>
</svg>