<?xml version="1.0" encoding="UTF-8"?>
<svg width="16px" height="16px" viewBox="0 0 16 16" version="1.1" xmlns="http://www.w3.org/2000/svg" xmlns:xlink="http://www.w3.org/1999/xlink">
    <!-- Generator: Sketch 63 (92445) - https://sketch.com -->
    <title>删除图片@2x</title>
    <desc>Created with Sketch.</desc>
    <g id="删除图片" stroke="none" stroke-width="1" fill="none" fill-rule="evenodd">
        <g id="删-除" fill="#FFFFFF" fill-rule="nonzero" stroke="#FFFFFF" stroke-width="0.2">
            <path d="M12.4875,13.475 C12.4875,14.0125 12.05,14.45 11.5125,14.45 L4.4875,14.45 C3.95,14.45 3.5125,14.0125 3.5125,13.475 L3.5125,3.125 L12.4875,3.125 L12.4875,13.475 L12.4875,13.475 Z M5.4625,1.375 C5.4625,1.2625 5.55,1.175 5.6625,1.175 L10.35,1.175 C10.4625,1.175 10.55,1.2625 10.55,1.375 L10.55,1.9625 L5.4625,1.9625 L5.4625,1.375 Z M15.4125,1.9625 L11.7125,1.9625 L11.7125,1.375 C11.7125,0.625 11.1,0.0125 10.35,0.0125 L5.6625,0.0125 C4.9125,0.0125 4.3,0.625 4.3,1.375 L4.3,1.9625 L0.5875,1.9625 C0.2625,1.9625 0,2.225 0,2.55 C0,2.875 0.2625,3.1375 0.5875,3.1375 L2.3375,3.1375 L2.3375,13.475 C2.3375,14.6625 3.3,15.625 4.4875,15.625 L11.5125,15.625 C12.7,15.625 13.6625,14.6625 13.6625,13.475 L13.6625,3.125 L15.4125,3.125 C15.7375,3.125 16,2.8625 16,2.5375 C16,2.2125 15.7375,1.9625 15.4125,1.9625 Z M8,12.6875 C8.325,12.6875 8.5875,12.425 8.5875,12.1 L8.5875,5.85 C8.5875,5.525 8.325,5.2625 8,5.2625 C7.675,5.2625 7.4125,5.525 7.4125,5.85 L7.4125,12.1 C7.4125,12.425 7.675,12.6875 8,12.6875 M5.2625,12.6875 C5.5875,12.6875 5.85,12.425 5.85,12.1 L5.85,5.85 C5.85,5.525 5.5875,5.2625 5.2625,5.2625 C4.9375,5.2625 4.675,5.525 4.675,5.85 L4.675,12.1 C4.6875,12.425 4.95,12.6875 5.2625,12.6875 M10.7375,12.6875 C11.0625,12.6875 11.325,12.425 11.325,12.1 L11.325,5.85 C11.325,5.525 11.0625,5.2625 10.7375,5.2625 C10.4125,5.2625 10.15,5.525 10.15,5.85 L10.15,12.1 C10.15,12.425 10.4125,12.6875 10.7375,12.6875" id="形状"></path>
        </g>
    </g>
</svg>