<?xml version="1.0" encoding="UTF-8"?>
<svg width="16px" height="16px" viewBox="0 0 16 16" version="1.1" xmlns="http://www.w3.org/2000/svg" xmlns:xlink="http://www.w3.org/1999/xlink">
    <!-- Generator: Sketch 63 (92445) - https://sketch.com -->
    <title>编辑图片@2x</title>
    <desc>Created with Sketch.</desc>
    <g id="编辑图片" stroke="none" stroke-width="1" fill="none" fill-rule="evenodd">
        <g id="编-辑" transform="translate(1.000000, 1.000000)" fill="#FFFFFF" fill-rule="nonzero">
            <path d="M4.34977919,9.50440385 C4.48759777,9.64223913 4.67452989,9.71967559 4.86944661,9.71967559 C5.06436332,9.71967559 5.25129545,9.64223913 5.38911402,9.50440385 L13.435414,1.45926601 C13.7227018,1.17147145 13.7227018,0.705401524 13.435414,0.417606971 L13.4330898,0.415282752 C13.1455901,0.129678025 12.6811487,0.130717811 12.3949307,0.417606971 L4.34863075,8.46275849 C4.06134294,8.75055304 4.06134294,9.21662297 4.34863075,9.50441752 L4.34977919,9.50440385 Z" id="路径"></path>
            <path d="M13.2627794,5.89534719 L13.2592794,5.89534719 C12.8540656,5.89535474 12.525579,6.22384749 12.525579,6.62906124 L12.525579,12.5267326 L1.47442291,12.5267326 L1.47442291,1.47209021 L7.37209431,1.4744281 C7.56699566,1.47412013 7.75379199,1.3964004 7.89139012,1.25836639 C8.02898825,1.12033239 8.10611682,0.933291182 8.10580836,0.738389832 L8.10580836,0.736065613 C8.10581586,0.541268667 8.02835964,0.354464345 7.89051229,0.216827292 C7.75266494,0.0791902394 7.56574258,0.00201931492 7.37094587,0.00230914809 L0.734898309,0.00230914809 C0.540125952,0.00107271733 0.352951634,0.077812632 0.215114822,0.215431128 C0.07727801,0.353049624 0.00024149682,0.540102064 0.00118425781,0.73487616 L1.36627978e-05,13.2674467 C-0.000916913321,13.462216 0.0761193463,13.6492628 0.213952787,13.786878 C0.351786227,13.9244931 0.538954914,14.0012328 0.733722527,13.9999999 L13.2674552,13.9999999 C13.4621318,14.0002987 13.6488742,13.9228627 13.7862025,13.7848772 C13.9235309,13.6468916 14.0000745,13.4597817 13.9988462,13.2651088 L13.9988462,6.63022335 C13.9985197,6.43532199 13.9207965,6.2485271 13.78276,6.11093153 C13.6447234,5.97333597 13.4576807,5.89621088 13.2627794,5.89652297 L13.2627794,5.89534719 Z" id="路径"></path>
        </g>
    </g>
</svg>