<?xml version="1.0" encoding="UTF-8"?>
<svg width="12px" height="12px" viewBox="0 0 12 12" version="1.1" xmlns="http://www.w3.org/2000/svg" xmlns:xlink="http://www.w3.org/1999/xlink">
    <!-- Generator: Sketch 63 (92445) - https://sketch.com -->
    <title>形状@1x</title>
    <desc>Created with Sketch.</desc>
    <g id="Welcome" stroke="none" stroke-width="1" fill="none" fill-rule="evenodd">
        <g id="麦当劳叔叔之家" transform="translate(-1523.000000, -365.000000)" fill="#F5222D" fill-rule="nonzero">
            <g id="矩形" transform="translate(300.000000, 186.000000)">
                <g id="编组" transform="translate(33.000000, 175.000000)">
                    <path d="M1200.245,5.755 C1199.105,4.6225 1197.605,4 1196,4 C1194.395,4 1192.8875,4.6225 1191.755,5.755 C1190.6225,6.8875 1190,8.395 1190,10 C1190,11.605 1190.6225,13.1125 1191.755,14.245 C1192.8875,15.3775 1194.395,16 1196,16 C1197.605,16 1199.1125,15.3775 1200.245,14.245 C1201.3775,13.1125 1202,11.605 1202,10 C1202,8.395 1201.3775,6.8875 1200.245,5.755 Z M1199,10.4275 L1193,10.4275 C1192.76,10.4275 1192.5725,10.2325 1192.5725,10 C1192.5725,9.7675 1192.7675,9.5725 1193,9.5725 L1199,9.5725 C1199.24,9.5725 1199.4275,9.7675 1199.4275,10 C1199.4275,10.2325 1199.24,10.4275 1199,10.4275 Z" id="形状"></path>
                </g>
            </g>
        </g>
    </g>
</svg>