<svg t="1593684688222" class="icon" viewBox="0 0 1024 1024" version="1.1" xmlns="http://www.w3.org/2000/svg" p-id="3643" width="16" height="16"><path d="M512 837.632c-276.608 0-500.736-298.304-500.736-357.568 0-42.688 224.128-357.76 500.736-357.76 276.544 0 500.736 317.952 500.736 357.76C1012.672 539.584 788.48 837.632 512 837.632L512 837.632zM505.536 291.584c-133.76 0-289.792 63.168-289.792 196.928 0 133.76 156.032 182.656 289.792 182.656s292.352-48.896 292.352-182.656C797.888 354.752 639.296 291.584 505.536 291.584L505.536 291.584zM508.288 389.888c0 45.888 37.312 83.072 83.008 83.072 10.88 0 20.928-2.24 30.4-5.824 0.384 3.84 1.344 7.552 1.344 11.584 0 65.536-53.312 118.656-118.72 118.656-65.536 0-118.656-53.12-118.656-118.656 0-65.6 53.12-118.784 118.656-118.784 3.328 0 6.464 0.768 9.664 1.024C510.464 369.984 508.288 379.584 508.288 389.888L508.288 389.888z" p-id="3644" fill="#ffffff"></path></svg>