<?xml version="1.0" encoding="UTF-8"?>
<svg width="16px" height="16px" viewBox="0 0 16 16" version="1.1" xmlns="http://www.w3.org/2000/svg" xmlns:xlink="http://www.w3.org/1999/xlink">
    <!-- Generator: Sketch 63 (92445) - https://sketch.com -->
    <title>设备管理@1x</title>
    <desc>Created with Sketch.</desc>
    <g id="设备管理" stroke="none" stroke-width="1" fill="none" fill-rule="evenodd">
        <g fill="#FFFFFF" fill-rule="nonzero">
            <path d="M12.4160607,0.0145808459 L2.50862114,0.0145808459 C1.12646952,0.0145808459 0.00601425417,1.135121 0.00601425417,2.51727261 L0.00601425417,12.4453098 C0.00601425417,13.8274614 1.12646952,14.9479167 2.50862114,14.9479167 L12.4366583,14.9479167 C13.8188099,14.9479167 14.9392652,13.8274614 14.9392652,12.4453098 L14.9392652,2.51727261 C14.9392652,1.84995577 14.6727955,1.21026641 14.1990013,0.74033997 C13.7252072,0.270413526 13.083355,0.00917340914 12.4160607,0.0145808459 Z M2.48802355,1.0445451 L12.4160607,1.0445451 C13.2294257,1.0445451 13.8887882,1.70390767 13.8887882,2.51727261 L13.8887882,4.28866514 L1.01529603,4.28866514 L1.01529603,2.51727261 C1.01529603,2.1230859 1.17324367,1.74533625 1.45390464,1.46854647 C1.73456562,1.19175668 2.11447297,1.039032 2.50862114,1.0445451 L2.48802355,1.0445451 Z M13.8887882,5.31854451 L13.8887882,8.92312232 L1.01529604,8.92312232 L1.01529604,5.31854451 L13.8887882,5.31854451 Z M12.4160607,13.9180373 L2.50862114,13.9180373 C1.69525619,13.9180373 1.03589363,13.2586747 1.03589363,12.4453098 L1.03589363,9.9530017 L13.9093858,9.9530017 L13.9093858,12.4453098 C13.9093858,12.8394965 13.7514382,13.2172461 13.4707772,13.4940359 C13.1901162,13.7708257 12.8102089,13.9235504 12.4160607,13.9180373 L12.4160607,13.9180373 Z" id="形状"></path>
            <path d="M10.0267406,2.14651604 L12.4984511,2.14651604 C12.7044269,2.14651604 12.8074149,2.24950397 12.8074149,2.45547985 L12.8074149,2.8674316 C12.8074149,3.07340747 12.7044269,3.17639541 12.4984511,3.17639541 L10.0267406,3.17639541 C9.8207647,3.17639541 9.71777676,3.07340747 9.71777676,2.8674316 L9.71777676,2.45547985 C9.71777676,2.24950397 9.8207647,2.14651604 10.0267406,2.14651604 Z" id="路径"></path>
            <path d="M10.0267406,6.86336357 L12.4984511,6.86336357 C12.7044269,6.86336357 12.8074149,6.96635151 12.8074149,7.17232739 L12.8074149,7.58427914 C12.8074149,7.79025501 12.7044269,7.89324295 12.4984511,7.89324295 L10.0267406,7.89324295 C9.8207647,7.89324295 9.71777676,7.79025501 9.71777676,7.58427914 L9.71777676,7.17232739 C9.71777676,6.96635151 9.8207647,6.86336357 10.0267406,6.86336357 Z" id="路径"></path>
            <path d="M10.0267406,11.4154304 L12.4984511,11.4154304 C12.7044269,11.4154304 12.8074149,11.5184183 12.8074149,11.7243942 L12.8074149,12.136346 C12.8074149,12.3423218 12.7044269,12.4453098 12.4984511,12.4453098 L10.0267406,12.4453098 C9.8207647,12.4453098 9.71777676,12.3423218 9.71777676,12.136346 L9.71777676,11.7243942 C9.71777676,11.5184183 9.8207647,11.4154304 10.0267406,11.4154304 Z" id="路径"></path>
        </g>
    </g>
</svg>