<?xml version="1.0" encoding="UTF-8"?>
<svg width="16px" height="16px" viewBox="0 0 16 16" version="1.1" xmlns="http://www.w3.org/2000/svg" xmlns:xlink="http://www.w3.org/1999/xlink">
    <!-- Generator: Sketch 63 (92445) - https://sketch.com -->
    <title>管理中心@1x</title>
    <desc>Created with Sketch.</desc>
    <g id="管理中心" stroke="none" stroke-width="1" fill="none" fill-rule="evenodd">
        <g id="首页-(1)" transform="translate(0.000000, 1.000000)" fill="#FFFFFF" fill-rule="nonzero">
            <path d="M0.593891078,6.54852382 C0.406359212,6.54852382 0.221886443,6.45984705 0.106567787,6.29430359 C-0.0807230591,6.02545539 -0.0146095017,5.65567555 0.254257242,5.4683847 L7.93041947,0.120991889 C8.14057699,-0.0253902912 8.42094163,-0.0204042036 8.6257613,0.133358053 L15.7476524,5.48073233 C16.0096779,5.67747856 16.062591,6.04937196 15.8658633,6.31139745 C15.6691356,6.57342294 15.2972422,6.62635458 15.0351981,6.4295898 L8.25650058,1.33992121 L0.932468134,6.44199305 C0.833207294,6.51139015 0.715005355,6.54852382 0.593891078,6.54852382 L0.593891078,6.54852382 Z M14.1875504,14.843847 L10.0582155,14.843847 C9.73055852,14.843847 9.46493627,14.5782248 9.46493627,14.2505678 L9.46493627,10.1036385 L7.08445886,10.1036385 L7.08445886,14.2505678 C7.08445886,14.5782248 6.81883662,14.843847 6.49117961,14.843847 L2.27279722,14.843847 C1.94514021,14.843847 1.67951796,14.5782248 1.67951796,14.2505678 L1.67951796,7.15952723 C1.67951796,6.83187022 1.94514021,6.56624797 2.27279722,6.56624797 C2.60045423,6.56624797 2.86607648,6.83187022 2.86607648,7.15952723 L2.86607648,13.6572885 L5.89790035,13.6572885 L5.89790035,9.51035921 C5.89790035,9.1827022 6.1635226,8.91707995 6.49117961,8.91707995 L10.0582155,8.91707995 C10.3858725,8.91707995 10.6514948,9.1827022 10.6514948,9.51035921 L10.6514948,13.6572885 L13.5942897,13.6572885 L13.5942897,7.15952723 C13.5942897,6.83187022 13.8599119,6.56624797 14.1875689,6.56624797 C14.515226,6.56624797 14.7808482,6.83187022 14.7808482,7.15952723 L14.7808482,14.2505678 C14.7808482,14.5782063 14.5152074,14.843847 14.1875504,14.843847 Z" id="Shape"></path>
        </g>
    </g>
</svg>