<?xml version="1.0" encoding="UTF-8"?>
<svg width="16px" height="16px" viewBox="0 0 16 16" version="1.1" xmlns="http://www.w3.org/2000/svg" xmlns:xlink="http://www.w3.org/1999/xlink">
    <!-- Generator: Sketch 63 (92445) - https://sketch.com -->
    <title>组织架构@1x</title>
    <desc>Created with Sketch.</desc>
    <g id="组织架构" stroke="none" stroke-width="1" fill="none" fill-rule="evenodd">
        <g transform="translate(0.000000, 1.000000)" fill="#FFFFFF" fill-rule="nonzero" id="形状" stroke="#FFFFFF" stroke-width="0.1">
            <path d="M13.7879808,9.33174556 L13.7879808,7.42973373 C13.7879808,7.15139053 13.5725962,6.9658284 13.3572115,6.9658284 L8.18798077,6.9658284 L8.18798077,5.1102071 L11.2033654,5.1102071 C11.4618269,5.1102071 11.6341346,4.92464497 11.6341346,4.64630178 L11.6341346,0.471153846 C11.6341346,0.192810651 11.4618269,0.00724852071 11.2033654,0.00724852071 L4.31105769,0.00724852071 C4.05259615,0.00724852071 3.88028846,0.192810651 3.88028846,0.471153846 L3.88028846,4.64630178 C3.88028846,4.92464497 4.05259615,5.1102071 4.31105769,5.1102071 L7.32644231,5.1102071 L7.32644231,6.9658284 L2.15721154,6.9658284 C1.94182692,6.9658284 1.72644231,7.15139053 1.72644231,7.42973373 L1.72644231,9.33174556 C0.735673077,9.56369822 0.00336538462,10.4915089 0.00336538462,11.6048817 C0.00336538462,12.9038166 0.951057692,13.9244083 2.15721154,13.9244083 C3.36336538,13.9244083 4.31105769,12.9038166 4.31105769,11.6048817 C4.31105769,10.4915089 3.57875,9.56369822 2.58798077,9.33174556 L2.58798077,7.89363905 L7.32644231,7.89363905 L7.32644231,10.2595562 C6.33567308,10.4915089 5.60336538,11.4193195 5.60336538,12.5326923 C5.60336538,13.8316272 6.55105769,14.8522189 7.75721154,14.8522189 C8.96336538,14.8522189 9.91105769,13.8316272 9.91105769,12.5326923 C9.91105769,11.4193195 9.17875,10.4915089 8.18798077,10.2595562 L8.18798077,7.89363905 L12.9264423,7.89363905 L12.9264423,9.33174556 C11.9356731,9.56369822 11.2033654,10.4915089 11.2033654,11.6048817 C11.2033654,12.9038166 12.1510577,13.9244083 13.3572115,13.9244083 C14.5633654,13.9244083 15.5110577,12.9038166 15.5110577,11.6048817 C15.5110577,10.4915089 14.77875,9.56369822 13.7879808,9.33174556 Z M4.74182692,0.935059172 L10.7725962,0.935059172 L10.7725962,4.18239645 L4.74182692,4.18239645 L4.74182692,0.935059172 Z M3.44951923,11.6048817 C3.44951923,12.3471302 2.88951923,12.9965976 2.15721154,12.9965976 C1.42490385,12.9965976 0.864903846,12.3471302 0.864903846,11.6048817 C0.864903846,11.0018047 1.20951923,10.4915089 1.72644231,10.3059467 C1.81259615,10.2595562 1.85567308,10.2595562 1.94182692,10.2595562 L2.37259615,10.2595562 C2.45875,10.2595562 2.50182692,10.3059467 2.58798077,10.3059467 C3.10490385,10.4915089 3.44951923,11.0018047 3.44951923,11.6048817 L3.44951923,11.6048817 Z M9.04951923,12.5326923 C9.04951923,13.2749408 8.48951923,13.9244083 7.75721154,13.9244083 C7.02490385,13.9244083 6.46490385,13.2749408 6.46490385,12.5326923 C6.46490385,11.7440533 7.02490385,11.1409763 7.75721154,11.1409763 C8.48951923,11.1409763 9.04951923,11.7440533 9.04951923,12.5326923 Z M13.3572115,12.9965976 C12.6249038,12.9965976 12.0649038,12.3471302 12.0649038,11.6048817 C12.0649038,11.0018047 12.4095192,10.4915089 12.9264423,10.3059467 L13.7879808,10.3059467 C14.3049038,10.4915089 14.6495192,11.0018047 14.6495192,11.6048817 C14.6495192,12.3471302 14.0895192,12.9965976 13.3572115,12.9965976 L13.3572115,12.9965976 Z"></path>
        </g>
    </g>
</svg>