<?xml version="1.0" encoding="UTF-8"?>
<svg width="16px" height="16px" viewBox="0 0 16 16" version="1.1" xmlns="http://www.w3.org/2000/svg" xmlns:xlink="http://www.w3.org/1999/xlink">
    <!-- Generator: Sketch 63 (92445) - https://sketch.com -->
    <title>监控视频@1x</title>
    <desc>Created with Sketch.</desc>
    <g id="监控视频" stroke="none" stroke-width="1" fill="none" fill-rule="evenodd">
        <g id="人员管理" fill="#FFFFFF" fill-rule="nonzero">
            <path d="M11.7603084,10.4266415 C10.8912758,10.4266415 10.1841425,11.1334 10.1841425,12.0017799 C10.1841425,12.8703742 10.8912758,13.5769897 11.7603084,13.5769897 C12.6295915,13.5769897 13.3366532,12.870267 13.3366532,12.0017799 C13.3366532,11.1334 12.6295915,10.4266415 11.7603084,10.4266415 Z M11.7603084,12.7653793 C11.3389408,12.7653793 10.9961615,12.4229035 10.9961615,12.0016905 C10.9961615,11.5807635 11.3389408,11.2383771 11.7603084,11.2383771 C12.1816581,11.2383771 12.5245269,11.5807635 12.5245269,12.0016905 C12.5246163,12.4227963 12.1816581,12.7652721 11.7603084,12.7652721 L11.7603084,12.7653793 Z M15.9280084,11.1788907 C15.8689196,10.8670876 15.668558,10.6653021 15.4114512,10.6653021 L15.3758691,10.6653021 C14.883713,10.6653021 14.4833298,10.2654134 14.4833298,9.77384624 C14.4833298,9.64484584 14.5396994,9.48631674 14.5612203,9.4365362 C14.6830116,9.16243046 14.589271,8.82596052 14.3184608,8.63859981 L13.2750241,8.06125286 C13.1932158,8.02604006 13.1048241,8.00795105 13.0122463,8.00795105 C12.8232624,8.00795105 12.6364431,8.08502597 12.5127377,8.21315052 C12.3827532,8.34704854 12.037362,8.62340647 11.7995757,8.62340647 C11.5595175,8.62340647 11.2120332,8.34150744 11.0819592,8.20569685 C10.9574846,8.07433701 10.769091,7.99597512 10.5779961,7.99597512 C10.4863665,7.99597512 10.3993165,8.01347427 10.3210682,8.04727499 L10.3016582,8.05522915 L9.2396165,8.63808145 L9.21433874,8.65432939 C8.96737519,8.82594264 8.87325891,9.16214447 8.99422722,9.4338729 C9.00242058,9.45335612 9.07324482,9.62595248 9.07324482,9.77382837 C9.07324482,10.2653955 8.67277209,10.6652842 8.18061605,10.6652842 L8.13909469,10.6652842 C7.88810602,10.6652842 7.68765498,10.8669624 7.62849464,11.1791409 C7.61947837,11.2271876 7.54044288,11.658321 7.54044288,12.0070886 C7.54044288,12.355892 7.61946048,12.7870253 7.62849464,12.8354117 C7.68765498,13.147322 7.88790923,13.3490002 8.14521287,13.3490002 L8.18061605,13.3490002 C8.67278998,13.3490002 9.07324482,13.7489604 9.07324482,14.2404561 C9.07324482,14.3694744 9.01687524,14.5278962 8.99535425,14.5776946 C8.87365248,14.8515144 8.96710685,15.1877341 9.23696886,15.3757025 L10.2608166,15.94556 C10.3423924,15.9810946 10.4308556,15.9994517 10.5235765,15.9994517 C10.7161025,15.9994517 10.904836,15.9189806 11.028273,15.7844928 C11.1542325,15.6478063 11.5124146,15.3483009 11.756981,15.3483009 C12.0041055,15.3483009 12.3581015,15.6483425 12.4906085,15.7934121 C12.6147433,15.9301701 12.8047111,16.0116779 12.9987756,16.0116779 C13.0900475,16.0116779 13.1769364,15.9942145 13.2826272,15.9476692 L14.3178526,15.37606 L14.3425757,15.3596333 C14.5891994,15.1882703 14.683262,14.852426 14.5623474,14.5803401 C14.554315,14.560839 14.4833298,14.3883499 14.4833298,14.2404561 C14.4833298,13.7488711 14.8837846,13.3489108 15.3758691,13.3489108 L15.4170506,13.3489108 C15.668397,13.3489108 15.8690269,13.1472326 15.9278474,12.8362696 C15.9286524,12.8319798 16.0162212,12.373838 16.0162212,12.007178 C16.0162212,11.6584282 15.9370247,11.2272055 15.9280084,11.1788907 L15.9280084,11.1788907 Z M15.1523586,12.5518861 C14.3116449,12.6617607 13.6712034,13.3790652 13.6712034,14.2404918 C13.6712034,14.4393816 13.7192007,14.6281365 13.7615987,14.7560108 L13.0145183,15.1685547 C12.9473793,15.1027586 12.8401143,15.0043415 12.7073211,14.9059959 C12.3771359,14.6610614 12.0572729,14.536619 11.7568915,14.536619 C11.4590683,14.536619 11.1418172,14.6587198 10.8136357,14.8990785 C10.7062991,14.9780302 10.6043652,15.0640782 10.508442,15.1565788 L9.79431398,14.7574944 C9.83664037,14.6292626 9.88506705,14.4393816 9.88506705,14.2404025 C9.88506705,13.3789937 9.24480443,12.6617071 8.40409078,12.5518861 C8.38267714,12.412858 8.35242611,12.1861734 8.35242611,12.0071065 C8.35242611,11.8271994 8.38248035,11.6011404 8.40409078,11.4623269 C9.24462554,11.3525416 9.88506705,10.635255 9.88506705,9.77382837 C9.88506705,9.57556421 9.83706972,9.38671992 9.79483278,9.25875624 L10.5659387,8.836006 C10.6327199,8.89890643 10.7401817,8.99356988 10.8720089,9.08739323 C11.1957181,9.31806389 11.5078886,9.43501687 11.799522,9.43501687 C12.0880964,9.43501687 12.3977266,9.32033396 12.7192712,9.09402467 C12.8260833,9.01882419 12.9277156,8.93653509 13.0234809,8.84771381 L13.7618134,9.25771952 C13.7194154,9.38559382 13.6711676,9.57495647 13.6711676,9.77384624 C13.6711676,10.6353265 14.3114303,11.3525595 15.152126,11.4624341 C15.1740942,11.6041255 15.2039696,11.8295589 15.2039696,12.0071244 C15.2039696,12.1859053 15.1742731,12.4108204 15.1523586,12.5518861 L15.1523586,12.5518861 Z M1.06998,14.8580207 L1.06998,13.9660465 C1.06998,10.9333841 3.41063272,8.43395445 6.39267509,8.15225204 L6.39145861,8.15166218 L6.39915106,8.15175155 C6.58205257,8.13469926 6.76692192,8.12502914 6.95418845,8.12502914 C6.98231063,8.12502914 7.01012869,8.1266021 7.03826876,8.12703109 C7.69776251,8.07583847 8.69558111,7.92097364 9.21729049,7.45586079 L9.47248318,7.25702464 C10.4694968,6.47912559 11.0414933,5.31683502 11.0414933,4.06847864 C11.0414933,1.83144688 9.20768387,0.0116778846 6.95340131,0.0116778846 C4.69911875,0.0116778846 2.86534508,1.83146475 2.86534508,4.06847864 C2.86534508,5.31683502 3.43732375,6.47903622 4.43433733,7.25713189 L4.68949424,7.45586079 L4.38888029,7.5751732 C1.7326044,8.62891183 0.0162211538,11.1374218 0.0162211538,13.9660465 L0.0162211538,15.3799209 C0.0162211538,15.667647 0.252451046,15.9018926 0.542921684,15.9018926 L8.24045619,15.9018926 C7.98871645,15.5795576 7.77501712,15.2292928 7.60359256,14.8580386 L1.06998,14.8580386 L1.06998,14.8580207 Z M3.91906814,4.06837139 C3.91906814,2.40695276 5.28016736,1.05544253 6.95336553,1.05544253 C8.62658159,1.05544253 9.9880386,2.40695276 9.9880386,4.06837139 C9.9880386,5.72979002 8.62658159,7.08138962 6.95336553,7.08138962 C5.28018525,7.08138962 3.91906814,5.72989727 3.91906814,4.06837139 Z" id="形状"></path>
        </g>
    </g>
</svg>