<?xml version="1.0" encoding="UTF-8"?>
<svg width="20px" height="20px" viewBox="0 0 20 20" version="1.1" xmlns="http://www.w3.org/2000/svg" xmlns:xlink="http://www.w3.org/1999/xlink">
    <!-- Generator: Sketch 63 (92445) - https://sketch.com -->
    <title>员工管理@2x</title>
    <desc>Created with Sketch.</desc>
    <g id="员工管理" stroke="none" stroke-width="1" fill="none" fill-rule="evenodd">
        <g id="员工管理-(1)" transform="translate(2.000000, 1.000000)" fill-rule="nonzero">
            <path d="M13.258337,11.8459963 C13.8524037,11.2558185 14.2211222,10.4393074 14.2211222,9.53807037 C14.2211222,7.74386667 12.7610778,6.28415926 10.966563,6.28415926 C9.17233333,6.28415926 7.71262593,7.74386667 7.71262593,9.53807037 C7.71262593,10.4399556 8.08173333,11.2569333 8.67605926,11.847137 C7.32422963,12.7389889 6.461,14.3474593 6.39354074,16.164063 C6.38792797,16.3159216 6.44433718,16.463529 6.5497963,16.5729407 C6.65523207,16.6825978 6.80079561,16.7445444 6.95291852,16.7445444 L14.9801556,16.7445444 C15.1322795,16.7445444 15.2778391,16.6825715 15.3833037,16.5729407 C15.4887602,16.4635274 15.545169,16.3159211 15.5395593,16.164063 C15.4723333,14.3517889 14.5986296,12.7330519 13.258337,11.8459963 L13.258337,11.8459963 Z M10.966537,7.40345926 C12.1440407,7.40345926 13.1018222,8.36100741 13.1018222,9.5380963 C13.1018222,10.7153926 12.1440407,11.6734333 10.966537,11.6734333 C9.78929259,11.6734333 8.83174444,10.7153926 8.83174444,9.5380963 C8.83174444,8.36098148 9.78929259,7.40345926 10.966537,7.40345926 L10.966537,7.40345926 Z M7.56915185,15.6252963 C7.78195185,14.2934556 8.54264444,13.140763 9.59614444,12.5991444 L9.71415926,12.5411741 C10.1107871,12.7073333 10.5365368,12.7928322 10.966563,12.7926815 C11.4094815,12.7926815 11.8316593,12.7030556 12.2169963,12.5418222 C13.3436074,13.0653963 14.1472852,14.2342926 14.3650889,15.6252963 L7.56915185,15.6252963 Z" id="形状" fill="#FCD000"></path>
            <path d="M4.86458519,15.6000963 L1.69446667,15.6000963 C1.38605185,15.6000963 1.13495926,15.3487444 1.13495926,15.0404593 L1.13495926,1.68251481 C1.13495926,1.37417778 1.38607778,1.12282593 1.69446667,1.12282593 L13.4761407,1.12282593 C13.7846852,1.12282593 14.0357778,1.37417778 14.0357778,1.68251481 L14.0357778,6.07695926 C14.0357778,6.38578889 14.2863778,6.6365963 14.5954148,6.6365963 C14.9045037,6.6365963 15.1550519,6.38578889 15.1550519,6.07695926 L15.1550519,1.68251481 C15.1550519,0.75657037 14.4019556,0.00355185185 13.4761407,0.00355185185 L1.69446667,0.00355185185 C0.768703704,0.00355185185 0.0156592593,0.75657037 0.0156592593,1.68251481 L0.0156592593,15.0404333 C0.0156592593,15.9662222 0.768703704,16.7193444 1.69446667,16.7193444 L4.86458519,16.7193444 C5.17364815,16.7193444 5.42424815,16.468537 5.42424815,16.1597074 C5.42424815,15.850437 5.17364815,15.6000963 4.86458519,15.6000963 L4.86458519,15.6000963 Z" id="路径" fill="#FFFFFF"></path>
            <path d="M9.89203704,3.65371481 C9.89203704,3.34441852 9.64146296,3.09407778 9.3324,3.09407778 L2.91028889,3.09407778 C2.6012,3.09407778 2.35065185,3.34441852 2.35065185,3.65371481 C2.35065185,3.96254444 2.6012,4.2134037 2.91028889,4.2134037 L9.3324,4.2134037 C9.64146296,4.2134037 9.89203704,3.96254444 9.89203704,3.65371481 Z M6.53867407,5.58786667 L2.91026296,5.58786667 C2.60117407,5.58786667 2.35062593,5.83815556 2.35062593,6.1475037 C2.35062593,6.45628148 2.60117407,6.70714074 2.91026296,6.70714074 L6.53864815,6.70714074 C6.84771111,6.70714074 7.09828519,6.45628148 7.09828519,6.1475037 C7.09828519,5.83818148 6.84771111,5.58786667 6.53867407,5.58786667 Z M6.53867407,8.08162963 L2.91026296,8.08162963 C2.60117407,8.08162963 2.35062593,8.33191852 2.35062593,8.64126667 C2.35062593,8.95004444 2.60117407,9.2009037 2.91026296,9.2009037 L6.53864815,9.2009037 C6.84771111,9.2009037 7.09828519,8.95004444 7.09828519,8.64126667 C7.09828519,8.33191852 6.84771111,8.08162963 6.53867407,8.08162963 Z" id="形状" fill="#FFFFFF"></path>
        </g>
    </g>
</svg>