<?xml version="1.0" encoding="UTF-8"?>
<svg width="20px" height="20px" viewBox="0 0 20 20" version="1.1" xmlns="http://www.w3.org/2000/svg" xmlns:xlink="http://www.w3.org/1999/xlink">
    <!-- Generator: Sketch 63 (92445) - https://sketch.com -->
    <title>入住家庭@2x</title>
    <desc>Created with Sketch.</desc>
    <g id="入住家庭" stroke="none" stroke-width="1" fill="none" fill-rule="evenodd">
        <g transform="translate(1.000000, 2.000000)" fill-rule="nonzero" id="入住" stroke-width="0.2">
            <g transform="translate(0.000000, 0.000000)">
                <path d="M6.85718783,11.1837844 L9.22221456,13.5265759 C9.43952448,13.7449724 9.79258621,13.7463286 10.0115675,13.529608 L10.0145996,13.5265759 C10.2329962,13.309266 10.2343523,12.9562042 10.0176317,12.7372229 L10.0145996,12.7341908 L8.59760494,11.3171962 L15.6158723,11.3171962 C15.9239941,11.3171962 16.1737761,11.0674142 16.1737761,10.7592924 C16.1737761,10.4511707 15.9239941,10.2013887 15.6158723,10.2013887 L8.59760494,10.2013887 L10.0378456,8.78540474 C10.239258,8.56384918 10.2311503,8.22316237 10.0194266,8.01143868 C9.80770294,7.799715 9.46701613,7.79160729 9.24546057,7.99301973 L6.85819853,10.3691641 C6.63333004,10.5796398 6.62156726,10.9325232 6.83192046,11.1575064 L6.85718783,11.1837844 Z" id="路径" stroke="#FCD000" fill="#FCD000"></path>
                <path d="M5.57461563,16.1938145 L3.34300066,16.1938145 C2.76768619,16.1966627 2.28450976,15.7616288 2.22719317,15.1891694 L2.22719317,7.60289137 L0.932492639,8.80764004 C0.705608414,9.00115741 0.366550873,8.98160995 0.163409418,8.7633006 C-0.0397320373,8.54499125 -0.0348553255,8.20540571 0.174471249,7.99301973 L8.5864873,0.171249658 C8.80070512,-0.0268918258 9.13130157,-0.0268918258 9.34551939,0.171249658 L17.6685943,7.83636196 C17.8671162,8.05062932 17.8667601,8.38174987 17.6677776,8.59558968 C17.4687952,8.80942948 17.1385569,8.83358776 16.9105729,8.65098229 L14.1099365,6.08482721 L8.92203809,1.34264539 L3.34300066,6.56389672 L3.34300066,15.0769823 L5.57461563,15.0769823 L5.57461563,16.1938145 Z" id="路径" stroke="#FFFFFF" fill="#FFFFFF"></path>
            </g>
        </g>
    </g>
</svg>