<?xml version="1.0" encoding="UTF-8"?>
<svg width="20px" height="20px" viewBox="0 0 20 20" version="1.1" xmlns="http://www.w3.org/2000/svg" xmlns:xlink="http://www.w3.org/1999/xlink">
    <!-- Generator: Sketch 63 (92445) - https://sketch.com -->
    <title>基础信息@2x</title>
    <desc>Created with Sketch.</desc>
    <g id="基础信息" stroke="none" stroke-width="1" fill="none" fill-rule="evenodd">
        <g transform="translate(3.000000, 2.000000)" fill-rule="nonzero" id="形状" stroke-width="0.2">
            <path d="M13.0098182,16.1781136 L1.74872727,16.1781136 C0.791636364,16.1781136 0.0178181818,15.4042955 0.0178181818,14.4472045 L0.0178181818,1.74029545 C0.0178181818,0.783204545 0.791636364,0.00938636364 1.74872727,0.00938636364 L13.0098182,0.00938636364 C13.9669091,0.00938636364 14.7407273,0.783204545 14.7407273,1.74029545 L14.7407273,14.4472045 C14.7407273,15.3941136 13.9669091,16.1781136 13.0098182,16.1781136 L13.0098182,16.1781136 Z M1.74872727,1.02756818 C1.35163636,1.02756818 1.036,1.34320455 1.036,1.74029545 L1.036,14.4472045 C1.036,14.8442955 1.35163636,15.1599318 1.74872727,15.1599318 L13.0098182,15.1599318 C13.4069091,15.1599318 13.7225455,14.8442955 13.7225455,14.4472045 L13.7225455,1.74029545 C13.7225455,1.34320455 13.4069091,1.02756818 13.0098182,1.02756818 L1.74872727,1.02756818 Z" stroke="#FFFFFF" fill="#FFFFFF"></path>
            <path d="M2.98072727,4.73375 L11.788,4.73375 L11.788,5.75193182 L2.98072727,5.75193182 L2.98072727,4.73375 Z M4.55890909,10.4355682 L11.7778182,10.4355682 L11.7778182,11.45375 L4.55890909,11.45375 L4.55890909,10.4355682 Z M2.98072727,10.4355682 L4.02945455,10.4355682 L4.02945455,11.45375 L2.98072727,11.45375 L2.98072727,10.4355682 Z" stroke="#FCD000" fill="#FCD000"></path>
            <path d="M4.55890909,7.58465909 L11.7778182,7.58465909 L11.7778182,8.60284091 L4.55890909,8.60284091 L4.55890909,7.58465909 Z M2.98072727,7.58465909 L4.02945455,7.58465909 L4.02945455,8.60284091 L2.98072727,8.60284091 L2.98072727,7.58465909 Z" stroke="#FCD000" fill="#FCD000"></path>
        </g>
    </g>
</svg>