<?xml version="1.0" encoding="UTF-8"?>
<svg width="20px" height="20px" viewBox="0 0 20 20" version="1.1" xmlns="http://www.w3.org/2000/svg" xmlns:xlink="http://www.w3.org/1999/xlink">
    <!-- Generator: Sketch 63 (92445) - https://sketch.com -->
    <title>首页@2x</title>
    <desc>Created with Sketch.</desc>
    <g id="首页" stroke="none" stroke-width="1" fill="none" fill-rule="evenodd">
        <g id="home" transform="translate(1.000000, 1.000000)" fill-rule="nonzero" stroke-width="0.4">
            <path d="M11.5701923,16.9961458 L10.8584135,16.9961458 L10.8584135,11.7244531 C10.8584135,11.1429427 10.2412861,10.5714583 9.61469351,10.5714583 L7.48314303,10.5714583 C6.85465745,10.5714583 6.23942308,11.1429427 6.23942308,11.7244531 L6.23942308,16.9961458 L5.52764423,16.9961458 L5.52764423,11.7244531 C5.52764423,10.6336198 6.55934495,9.8175 7.48314303,9.8175 L9.61658654,9.8175 C10.5403846,9.8175 11.5720853,10.6336198 11.5720853,11.7244531 L11.5720853,16.9961458 L11.5701923,16.9961458 Z" id="路径" stroke="#FCD000" fill="#FCD000"></path>
            <path d="M14.1238882,17.373125 L2.97394832,17.373125 C2.10883413,17.373125 1.40652043,16.5289323 1.40652043,15.4902344 L1.40652043,6.07578125 L2.11829928,6.07578125 L2.11829928,15.4902344 C2.11829928,16.1018229 2.51015625,16.6191667 2.97394832,16.6191667 L14.1238882,16.6191667 C14.5876803,16.6191667 14.9795373,16.1018229 14.9795373,15.4902344 L14.9795373,6.07578125 L15.6913161,6.07578125 L15.6913161,15.4902344 C15.6913161,16.5269271 14.9871094,17.373125 14.1238882,17.373125 L14.1238882,17.373125 Z" id="路径" stroke="#FFFFFF" fill="#FFFFFF"></path>
            <path d="M16.7249099,7.70601563 C16.6454026,7.70601563 16.5658954,7.67794271 16.4996394,7.61979167 L9.03353365,1.09484375 C8.54891827,0.677760417 8.54891827,0.677760417 8.06240986,1.09684896 L0.598197115,7.61979167 C0.446754808,7.75213542 0.223377404,7.72807292 0.0984375,7.56966146 C-0.0265024038,7.40924479 -0.00567908654,7.17263021 0.145763221,7.04028646 L7.61186899,0.513333333 C8.39179687,-0.158411458 8.70603966,-0.158411458 9.48407452,0.511328125 L16.9520733,7.03828125 C17.1035156,7.170625 17.1243389,7.40723958 16.999399,7.56765625 C16.929357,7.65989583 16.8271334,7.70601563 16.7249099,7.70601563 L16.7249099,7.70601563 Z" id="路径" stroke="#FFFFFF" fill="#FFFFFF"></path>
        </g>
    </g>
</svg>