<?xml version="1.0" encoding="UTF-8"?>
<svg width="20px" height="20px" viewBox="0 0 20 20" version="1.1" xmlns="http://www.w3.org/2000/svg" xmlns:xlink="http://www.w3.org/1999/xlink">
    <!-- Generator: Sketch 63 (92445) - https://sketch.com -->
    <title>志愿者管理@2x</title>
    <desc>Created with Sketch.</desc>
    <g id="志愿者管理" stroke="none" stroke-width="1" fill="none" fill-rule="evenodd">
        <g id="志愿者" transform="translate(2.000000, 2.000000)" fill-rule="nonzero">
            <path d="M0.579813382,16.5919694 C0.267828831,16.5914436 0.0149476929,16.3388477 0.0140697981,16.026864 C0.0140697981,14.0746816 0.771904555,12.2424765 2.15323789,10.8617813 C2.90201345,10.1116466 3.80539415,9.5338576 4.80039459,9.16869872 C4.13593849,8.77243629 3.57408352,8.2253382 3.16028063,7.57166168 C2.65796014,6.78540946 2.39173434,5.87155951 2.39319231,4.93854488 C2.39319231,2.22437963 4.59904986,0.0134166611 7.31800142,0.0134166611 C8.63200711,0.0134166611 9.86943162,0.526510671 10.799255,1.45665314 C11.7263572,2.37779867 12.2462988,3.63163341 12.243144,4.93854488 C12.243144,7.65302921 10.0321667,9.86399217 7.31768233,9.86399217 C7.26024644,9.86399217 7.20281053,9.86399217 7.13548291,9.85920585 C5.56334891,9.90152614 4.06775713,10.5470642 2.9586168,11.6620548 C1.79463777,12.815565 1.14158932,14.3875016 1.14555698,16.0262258 C1.14555698,16.3386133 0.892200851,16.5916503 0.579813382,16.5919694 Z M7.3132151,8.72708049 C7.33714672,8.72708049 7.36107834,8.72708049 7.3897963,8.73250498 C9.43770512,8.69421438 11.106537,6.99124002 11.106537,4.93854488 C11.106537,2.84787822 9.40451996,1.14522294 7.3132151,1.14522294 C5.22254844,1.14522294 3.51989081,2.8478782 3.51989081,4.93854488 C3.51765954,6.96539388 5.1111866,8.63486397 7.135802,8.72708049 L7.3132151,8.72708049 Z" id="形状" fill="#FFFFFF"></path>
            <path d="M11.9990271,16.4822122 C11.8449074,16.4822122 11.7013177,16.4343398 11.5765541,16.3379751 C11.4993348,16.2757529 9.64862251,14.84177 8.9057849,13.6723113 C8.63743162,13.2501574 8.30557978,12.7271717 8.30557978,11.955297 C8.30557978,10.6406531 9.29347721,9.57138818 10.5072892,9.57138818 C11.063141,9.57138818 11.5909131,9.79155911 11.9990271,10.1999922 C12.3916771,9.79901315 12.9289166,9.5725287 13.4901268,9.57138818 C14.7026624,9.57138818 15.691198,10.6409722 15.691198,11.955297 C15.691198,12.7274907 15.3609416,13.2501574 15.0916311,13.6719922 C14.343688,14.8468754 12.4968048,16.2757529 12.4205427,16.3379751 C12.3003045,16.4321767 12.1517705,16.4829999 11.9990271,16.4822122 Z M10.5072892,10.6122543 C9.84071367,10.6122543 9.30336895,11.2166076 9.30336895,11.955297 C9.30336895,12.3819181 9.4903547,12.7131318 9.74020085,13.0966759 C10.2727593,13.9307728 11.5717678,15.0198212 12.0031752,15.3653939 C12.4304345,15.0198212 13.7300812,13.9358782 14.2667878,13.0966759 C14.5118476,12.7083454 14.7033006,12.3822372 14.7033006,11.955297 C14.7033006,11.2118212 14.1614886,10.6119352 13.4996994,10.6119352 C13.0296823,10.6119352 12.5982749,10.9236845 12.4013974,11.4035933 L12.3197108,11.5810064 L12.2718476,11.5810064 C12.1962074,11.6466591 12.0991816,11.6824054 11.9990271,11.6815192 C11.8920068,11.6807285 11.7892241,11.6395927 11.7112094,11.5663283 L11.6767479,11.575901 L11.6055912,11.4080605 C11.4087137,10.9236845 10.9766681,10.6122543 10.5072892,10.6122543 L10.5072892,10.6122543 Z" id="形状" fill="#FCD000"></path>
        </g>
    </g>
</svg>