<?xml version="1.0" encoding="UTF-8"?>
<svg width="20px" height="20px" viewBox="0 0 20 20" version="1.1" xmlns="http://www.w3.org/2000/svg" xmlns:xlink="http://www.w3.org/1999/xlink">
    <!-- Generator: Sketch 63 (92445) - https://sketch.com -->
    <title>募捐管理@2x</title>
    <desc>Created with Sketch.</desc>
    <g id="募捐管理" stroke="none" stroke-width="1" fill="none" fill-rule="evenodd">
        <g id="募捐" transform="translate(2.000000, 3.000000)" fill-rule="nonzero" stroke-width="0.3">
            <path d="M0.94125,14.1558304 L15.05875,14.1558304 L0.94125,14.1558304 Z M7.52925,7.50025027 L7.05875,7.50025027 C6.79946841,7.50052675 6.58893943,7.29078082 6.58825,7.0315 C6.58825,6.7725 6.799,6.56275 7.05875,6.56275 L7.52925,6.56275 L7.52925,7.50025027 Z M8.94125,9.37525007 L8.47075,9.37525007 L8.47075,8.43725 L8.94125,8.43725 C9.2005,8.43725 9.41175,8.64775 9.41175,8.9065 C9.41092316,9.16572352 9.2004748,9.37538913 8.94125,9.37525007 Z M16,7.9685 C16,3.56775 12.41825,0 8,0 C3.58175,0 0,3.5675 0,7.9685 C0,10.4175 1.114,12.60175 2.86,14.0625 L0.941,14.0625 L0.941,15 L15.0585,15 L15.0585,14.0625 L13.13675,14.0625 C14.88425,12.6025 16,10.4185 16,7.9685 Z M11.501,14.0625 L4.501,14.0625 C2.3785,12.849 0.941,10.57625 0.941,7.9685 C0.94125,4.09175 4.1075,0.938 8,0.938 C11.8915,0.938 15.05875,4.09175 15.05875,7.9685 C15.05875,10.576 13.62225,12.849 11.50125,14.0625 L11.501,14.0625 Z" id="形状" stroke="#FFFFFF" fill="#FFFFFF"></path>
            <path d="M8.94125,7.50025 L8.47075,7.50025 L8.47075,6.56275 L9.8825,6.56275 L9.8825,5.62525 L8.47075,5.62525 L8.47075,4.68775 L7.52925,4.68775 L7.52925,5.62525 L7.05875,5.62525 C6.28025,5.62525 5.647,6.256 5.647,7.0315 C5.647,7.807 6.28025,8.43725 7.05875,8.43725 L7.52925,8.43725 L7.52925,9.37525 L6.1175,9.37525 L6.1175,10.31225 L7.52925,10.31225 L7.52925,11.25 L8.47075,11.25 L8.47075,10.3125 L8.94125,10.3125 C9.71975,10.3125 10.353,9.682 10.353,8.90675 C10.353,8.13125 9.71975,7.5005 8.94125,7.5005 L8.94125,7.50025 Z" id="路径" stroke="#FCD000" fill="#FCD000"></path>
        </g>
    </g>
</svg>