<?xml version="1.0" encoding="UTF-8"?>
<svg width="20px" height="20px" viewBox="0 0 20 20" version="1.1" xmlns="http://www.w3.org/2000/svg" xmlns:xlink="http://www.w3.org/1999/xlink">
    <!-- Generator: Sketch 63 (92445) - https://sketch.com -->
    <title>麦当劳叔叔之家@2x</title>
    <desc>Created with Sketch.</desc>
    <g id="麦当劳叔叔之家" stroke="none" stroke-width="1" fill="none" fill-rule="evenodd">
        <g transform="translate(1.000000, 1.000000)" fill-rule="nonzero" id="之家" stroke-width="0.2">
            <g>
                <path d="M14.5195312,17.1240234 L3.10078125,17.1240234 C2.59628906,17.1240234 2.18613281,16.734375 2.18613281,16.256543 L2.18613281,8.63378906 L3.21152344,8.63378906 L3.21152344,16.0986328 L14.4087891,16.0986328 L14.4087891,8.63378906 L15.4341797,8.63378906 L15.4341797,16.2585937 C15.4341797,16.7364258 15.0240234,17.1240234 14.5195312,17.1240234 Z" id="路径" stroke="#FFFFFF" fill="#FFFFFF"></path>
                <path d="M0.730078125,9.06855469 L0.0041015625,8.34257813 L8.08007812,0.268652344 C8.43486328,-0.0861328125 9.00908203,-0.0881835938 9.36591797,0.2625 L17.7125977,8.14160156 L17.0091797,8.88808594 L8.728125,1.07050781 L0.730078125,9.06855469 Z" id="路径" stroke="#FFFFFF" fill="#FFFFFF"></path>
                <path d="M8.87373047,14.455957 L8.33847656,14.1196289 C7.26796875,13.4203125 6.41279297,12.5835938 5.87138672,11.6956055 C5.36279297,10.8650391 5.13925781,10.0057617 5.24384766,9.27568359 C5.35869141,8.46357422 5.85703125,7.86679687 6.61582031,7.63300781 C7.58994141,7.33359375 8.37128906,7.64326172 8.87578125,7.97548828 C9.37822266,7.64326172 10.1616211,7.33359375 11.1357422,7.63300781 C11.8924805,7.86474609 12.3928711,8.46357422 12.5077148,9.27568359 C12.6102539,10.0057617 12.3867188,10.8650391 11.8801758,11.6956055 C11.3367187,12.581543 10.4835938,13.4203125 9.41308594,14.1196289 L9.40693359,14.1237305 L8.87373047,14.455957 L8.87373047,14.455957 Z M7.39511719,8.53945312 C7.24541016,8.53945312 7.08544922,8.56201172 6.91523437,8.61328125 C6.53789063,8.728125 6.31640625,9.00087891 6.25898437,9.41923828 C6.18925781,9.91552734 6.36152344,10.5328125 6.74707031,11.1603516 C7.20644531,11.9109375 7.94267578,12.6307617 8.87373047,13.2439453 C9.80683594,12.6307617 10.5410156,11.9109375 11.0003906,11.1603516 C11.3838867,10.5328125 11.5582031,9.91347656 11.4884766,9.41923828 C11.4290039,9.00087891 11.2075195,8.73017578 10.8322266,8.61328125 C10.1144531,8.39384766 9.55458984,8.70556641 9.21210938,9.00498047 L8.87373047,9.30029297 L8.53535156,9.00498047 C8.27490234,8.77529297 7.88525391,8.53945312 7.39511719,8.53945312 L7.39511719,8.53945312 Z" id="形状" stroke="#FCD000" fill="#FCD000"></path>
            </g>
        </g>
    </g>
</svg>