<?xml version="1.0" encoding="UTF-8"?>
<svg width="20px" height="20px" viewBox="0 0 20 20" version="1.1" xmlns="http://www.w3.org/2000/svg" xmlns:xlink="http://www.w3.org/1999/xlink">
    <!-- Generator: Sketch 63 (92445) - https://sketch.com -->
    <title>账户权限@2x</title>
    <desc>Created with Sketch.</desc>
    <g id="账户权限" stroke="none" stroke-width="1" fill="none" fill-rule="evenodd">
        <g id="权限-(1)" transform="translate(2.000000, 0.000000)" fill-rule="nonzero">
            <path d="M7.84272504,0 L0.464300795,2.34453333 C0.186957471,2.43240408 -0.00110889398,2.69030796 4.92081281e-06,2.98123636 L0.0380220067,12.1964606 L0.0461674612,12.3023515 C0.0597432188,12.3661576 0.362482613,13.9070061 1.87210686,15.3921939 C3.03283413,16.5366303 5.87967049,18.0326788 7.09334322,18.6707394 C7.28340382,18.7712 7.42730686,18.8458667 7.5087614,18.8906667 L7.64723413,18.9666909 C7.7413505,19.0176999 7.85451902,19.0192224 7.94997352,18.9707636 L8.15225231,18.8675879 C8.86226443,18.5200485 12.4734159,16.7158303 13.8147008,15.3935515 C15.3256826,13.9070061 15.628422,12.3661576 15.6406402,12.3023515 L15.6868121,2.98123636 C15.6886987,2.69017484 15.5011509,2.4316779 15.2238644,2.34317576 L7.84272504,0 Z M14.4405432,12.1299394 C14.3848826,12.3566545 14.060422,13.4739394 12.9594281,14.5572848 C11.8950887,15.6066909 9.01295534,17.1054545 7.96490686,17.6321939 C7.87088226,17.6801196 7.75937794,17.6791059 7.66624019,17.6294788 L7.66488261,17.6294788 C6.59647049,17.0688 3.76185231,15.5795394 2.72737958,14.5586424 C1.62367049,13.4725818 1.30056746,12.3566545 1.24354928,12.1299394 L1.20960989,3.57042424 C1.20960989,3.44281212 1.29242201,3.32877576 1.41460382,3.28940606 L7.6431614,1.31006061 C7.77299937,1.26876516 7.9124507,1.26876516 8.04228867,1.31006061 L14.2708462,3.28940606 C14.3930281,3.32741818 14.4771978,3.44145455 14.4771978,3.57042424 L14.4419008,12.131297 L14.4405432,12.1299394 Z" id="形状" fill="#FFFFFF"></path>
            <path d="M7.95404625,4.44462577 L7.95540382,4.44606061 C8.67557423,4.44356723 9.36735207,4.72672259 9.87908867,5.23345455 C10.3882203,5.73468671 10.6740177,6.41985361 10.6719851,7.13430759 C10.6699307,7.84876157 10.3802186,8.5322824 9.86822807,9.03059394 C9.52090576,9.36781136 9.089664,9.60593181 8.61925837,9.72024242 L8.61247049,10.8483879 L9.73925837,10.851103 C9.91854786,10.8496567 10.0910107,10.9197741 10.2184271,11.0459164 C10.3458435,11.1720586 10.4176906,11.3438081 10.4180462,11.523103 C10.4113828,11.8954565 10.1075987,12.1938051 9.73518564,12.1937455 L8.60839776,12.1910303 L8.60432504,14.0658424 C8.58160927,14.4255488 8.28324492,14.7056655 7.92282201,14.7056655 C7.5623991,14.7056655 7.26403474,14.4255488 7.24131898,14.0658424 L7.25760989,9.71888485 C6.31437904,9.4938915 5.56850921,8.77311417 5.311382,7.8381318 C5.05425478,6.90314943 5.32667385,5.90233495 6.02221595,5.22666667 C6.53809473,4.72029091 7.23317352,4.43927273 7.95404625,4.44462577 Z M6.85848261,5.98283636 C6.55826678,6.27617948 6.38856693,6.67788796 6.38754103,7.09762441 C6.38652441,7.51736086 6.55426748,7.91989037 6.85305231,8.21469091 C7.15307655,8.51335758 7.5589917,8.68033939 7.98391292,8.67762424 C8.84461595,8.68033939 9.58992504,7.94724848 9.59266984,7.10283636 C9.59524086,6.6847435 9.42666955,6.28095641 9.12563413,5.98690909 C8.49641854,5.37010286 7.4899102,5.36829476 6.85848261,5.98283636 Z" id="形状结合" fill="#FCD000"></path>
        </g>
    </g>
</svg>