<?xml version="1.0" encoding="UTF-8"?>
<svg width="19px" height="16px" viewBox="0 0 19 16" version="1.1" xmlns="http://www.w3.org/2000/svg" xmlns:xlink="http://www.w3.org/1999/xlink">
    <!-- Generator: Sketch 63 (92445) - https://sketch.com -->
    <title>人员@2x</title>
    <desc>Created with Sketch.</desc>
    <g id="Welcome" stroke="none" stroke-width="1" fill="none" fill-rule="evenodd">
        <g id="首页（麦当劳叔叔之家）" transform="translate(-300.000000, -347.000000)" fill="#4872AE" fill-rule="nonzero">
            <g id="人员" transform="translate(300.000000, 347.000000)">
                <path d="M11.85,7.18671875 C12.7875,6.44609375 13.396875,5.31171875 13.396875,4.02734375 C13.396875,1.81484375 11.596875,0.00546875 9.375,0.00546875 C7.1625,0.00546875 5.353125,1.80546875 5.353125,4.02734375 C5.353125,5.31171875 5.9625,6.44609375 6.9,7.18671875 C4.434375,8.17109375 2.68125,10.5898437 2.68125,13.4023437 L2.68125,14.7429687 C2.68125,15.1179687 2.98125,15.4085937 3.346875,15.4085937 L15.403125,15.4085937 C15.778125,15.4085937 16.0687874,15.1085937 16.0687874,14.7429687 L16.0687874,13.4023437 C16.078125,10.5898437 14.325,8.17109375 11.85,7.18671875 L11.85,7.18671875 Z M6.703125,4.02734375 C6.703125,2.54609375 7.903125,1.34609375 9.384375,1.34609375 C10.865625,1.34609375 12.065625,2.54609375 12.065625,4.02734375 C12.065625,5.50859375 10.865625,6.70859375 9.384375,6.70859375 C7.903125,6.70859375 6.703125,5.50859375 6.703125,4.02734375 L6.703125,4.02734375 Z M14.7375,14.0773437 L4.021875,14.0773437 L4.021875,13.4117187 C4.021875,10.4585937 6.421875,8.04921875 9.384375,8.04921875 C12.3375,8.04921875 14.7375,10.4492187 14.7375,13.4117187 L14.7375,14.0773437 L14.7375,14.0773437 Z" id="形状"></path>
                <path d="M4.89375,7.41171875 C4.9125,7.37421875 4.9125,7.32734375 4.921875,7.28984375 C4.93125,7.26171875 4.93125,7.24296875 4.940625,7.21484375 C4.95,7.15859375 4.940625,7.11171875 4.93125,7.05546875 L4.93125,6.97109375 C4.93125,6.95234375 4.9125,6.94296875 4.9125,6.92421875 C4.903125,6.89609375 4.884375,6.86796875 4.875,6.83984375 C4.846875,6.78359375 4.81875,6.72734375 4.78125,6.68046875 L4.7625,6.66171875 C4.70625,6.59609375 4.63125,6.54921875 4.55625,6.51171875 C3.815625,6.20234375 3.346875,5.48046875 3.346875,4.69296875 C3.346875,3.76484375 3.975,2.95859375 4.884375,2.74296875 C5.240625,2.65859375 5.465625,2.29296875 5.38125,1.93671875 C5.296875,1.58046875 4.93125,1.35546875 4.575,1.43984375 C3.065625,1.79609375 2.00625,3.13671875 2.00625,4.69296875 C2.00625,5.53671875 2.325,6.33359375 2.878125,6.94296875 C1.134375,7.84296875 0,9.65234375 0,11.6960937 L0,12.7273437 C0,13.0929687 0.3,13.3929687 0.665625,13.3929687 C1.040625,13.3929687 1.33125,13.0929687 1.33125,12.7273437 L1.33125,11.6960937 C1.33125,9.83984375 2.578125,8.25546875 4.359375,7.80546875 C4.59375,7.76796875 4.8,7.63671875 4.89375,7.41171875 Z M15.871875,6.94296875 C16.415625,6.34296875 16.74375,5.54609375 16.74375,4.69296875 C16.74375,3.18359375 15.721875,1.85234375 14.26875,1.45859375 C13.9125,1.36484375 13.546875,1.57109375 13.44375,1.92734375 C13.35,2.28359375 13.55625,2.64921875 13.9125,2.75234375 C14.784375,2.98671875 15.403125,3.78359375 15.403125,4.69296875 C15.403125,5.48984375 14.934375,6.20234375 14.2125,6.53046875 C14.128125,6.56796875 14.0625,6.61484375 13.996875,6.68046875 L13.978125,6.69921875 C13.940625,6.74609375 13.903125,6.80234375 13.875,6.85859375 C13.865625,6.88671875 13.846875,6.91484375 13.8375,6.94296875 C13.8375,6.96171875 13.81875,6.97109375 13.81875,6.98984375 C13.809375,7.01796875 13.81875,7.04609375 13.81875,7.07421875 C13.809375,7.13046875 13.809375,7.17734375 13.809375,7.23359375 C13.809375,7.26171875 13.81875,7.28046875 13.828125,7.30859375 C13.8375,7.34609375 13.8375,7.39296875 13.85625,7.43046875 C13.95,7.65546875 14.15625,7.78671875 14.38125,7.81484375 C16.171875,8.26484375 17.409375,9.85859375 17.409375,11.7054688 L17.409375,12.7367188 C17.409375,13.1023438 17.709375,13.4023438 18.075,13.4023438 C18.440625,13.4023438 18.740625,13.1023438 18.740625,12.7367188 L18.740625,11.7054688 C18.75,9.65234375 17.615625,7.84296875 15.871875,6.94296875 L15.871875,6.94296875 Z" id="形状"></path>
            </g>
        </g>
    </g>
</svg>