<?xml version="1.0" encoding="UTF-8"?>
<svg width="18px" height="20px" viewBox="0 0 18 20" version="1.1" xmlns="http://www.w3.org/2000/svg" xmlns:xlink="http://www.w3.org/1999/xlink">
    <!-- Generator: Sketch 63 (92445) - https://sketch.com -->
    <title>钱 (3)@2x</title>
    <desc>Created with Sketch.</desc>
    <g id="Welcome" stroke="none" stroke-width="1" fill="none" fill-rule="evenodd">
        <g id="首页（）" transform="translate(-300.000000, -587.000000)" fill="#4872AE" fill-rule="nonzero">
            <g id="钱-(3)" transform="translate(300.000000, 587.000000)">
                <path d="M17.8970253,13.4095585 C17.768665,9.57979552 14.4512348,6.70086069 12.8616791,5.53753531 C13.4979502,4.85755698 14.2172768,3.92644944 14.3238162,3.10276183 C14.3985561,2.49133718 14.2817575,1.95760243 13.9746025,1.5138883 C13.6595327,1.0768187 13.2790604,0.864342773 12.8114451,0.864342773 C12.1946504,0.864342773 11.5908802,1.29495951 11.2514247,1.62230916 C10.8687884,0.830992338 10.0718766,0 8.92276548,0 C7.62571741,0.0191669171 6.94065497,1.06887508 6.67099016,1.61741095 C6.34331676,1.31186899 5.75114822,0.862149226 5.10563983,0.862149226 C4.66601686,0.862149226 4.2779504,1.0761798 3.95087812,1.49993904 C3.61645208,1.94486707 3.49322139,2.50245399 3.5933889,3.10633966 C3.69908677,3.92370219 4.42240081,4.84371421 5.06432249,5.51617484 C3.46921645,6.63645985 0.152607772,9.43344546 0.00693507366,13.3912648 C-0.0617735487,15.4093282 0.380334075,16.9585262 1.32109518,17.9967768 C2.44692272,19.2315948 3.95590754,19.3649752 4.55250436,19.3649752 L13.3492719,19.3649752 C13.9456683,19.3649752 15.4546331,19.2315948 16.5831256,17.9964573 C17.5236864,16.9583132 17.9656938,15.4150995 17.8969852,13.4095585 L17.8970253,13.4095585 Z M12.8541049,2.88883774 C12.8006849,3.30348205 12.0597379,4.2039864 11.3733329,4.86126258 L6.5664144,4.85223284 C5.86730567,4.20115396 5.11076944,3.29792364 5.05314156,2.86215313 C5.01122308,2.60695628 5.06925171,2.52871267 5.0995885,2.48784454 C5.11234545,2.47082812 5.12597141,2.45456858 5.14040491,2.43913927 C5.28968436,2.47694069 5.62903964,2.70404736 5.81019876,2.91303065 C6.04517865,3.20747709 6.37716011,3.36950143 6.74512895,3.36950143 C6.80567374,3.36952728 6.86604141,3.36255063 6.92516598,3.34869467 L6.99261224,3.33627877 C7.41133609,3.24561925 7.74658367,2.93888469 7.912895,2.49438259 L7.91451804,2.49012327 C7.95050541,2.39684428 8.28525206,1.57873637 8.96378226,1.56925939 C9.57739094,1.56925939 9.92033292,2.30771811 9.98429265,2.45983954 C10.1082647,2.88406731 10.4294861,3.20441038 10.8460459,3.31915633 C10.9891538,3.36950143 11.1121841,3.36950143 11.1651031,3.36950143 C11.4927765,3.36950143 11.8171638,3.21661332 12.0830215,2.9338587 C12.2688894,2.71863552 12.6038364,2.4843519 12.7765998,2.44077911 C12.7800663,2.44525139 12.7838735,2.4501496 12.7878609,2.45581449 C12.8356504,2.52336723 12.8860848,2.63353441 12.8541049,2.88885904 L12.8541049,2.88883774 Z M6.48806773,6.42705063 L11.4426026,6.43761373 C12.3352937,7.02365287 16.2932831,9.8248765 16.4140692,13.4674426 C16.466868,15.0308241 16.1638007,16.1873985 15.5139041,16.9046033 C14.7819739,17.7065045 13.754771,17.7931389 13.3470277,17.7931389 L4.55240418,17.7931389 C4.14403972,17.7931389 3.11541414,17.7065045 2.38594858,16.904944 C1.73563119,16.1873985 1.43276422,15.0254574 1.48546287,13.4519813 C1.62316064,9.72865858 5.30126604,7.15973798 6.48808777,6.42705063 L6.48806773,6.42705063 Z" id="形状"></path>
                <path d="M11.2425252,12.3638073 L9.61254932,12.3638073 L9.61254932,11.9857079 L11.2425039,11.9857079 C11.6758679,11.9857079 12.0282624,11.6332922 12.0282624,11.1999282 C12.0282624,10.7665642 11.6758679,10.4140633 11.2425039,10.4140633 L10.5294094,10.4140633 L11.496061,9.52552763 C11.6830977,9.35489635 11.7938123,9.11632686 11.8033705,8.86333195 C11.8141376,8.61189597 11.7236139,8.36664573 11.552071,8.18250176 C11.3719743,7.98678036 11.1182385,7.87528641 10.8522655,7.875 C10.6138519,7.87475124 10.3841907,7.96480626 10.2094923,8.12704548 L8.80108594,9.42027996 L7.39321199,8.12757789 C7.21843262,7.96503683 6.98854216,7.87478224 6.74986377,7.875 C6.4842145,7.87526004 6.23075728,7.98650852 6.05073982,8.18186286 C5.87886239,8.36610676 5.78810183,8.61161293 5.79880134,8.86335324 C5.80846583,9.11625071 5.91915876,9.3547058 6.10608962,9.52531467 L7.07274114,10.4139568 L6.4108649,10.4139568 C5.9775009,10.4139568 5.625,10.7664577 5.625,11.1998217 C5.625,11.6331857 5.9775009,11.9855801 6.4108649,11.9855801 L8.04069174,11.9855801 L8.04069174,12.3637008 L6.41097138,12.3637008 C5.97760738,12.3637008 5.62510648,12.7161165 5.62510648,13.1494805 C5.62510648,13.5828445 5.97760738,13.9353454 6.41097138,13.9353454 L8.04079823,13.9353454 L8.04079823,15.5187457 C8.04079823,15.952131 8.39332043,16.3045255 8.82668442,16.3045255 C9.26004841,16.3045255 9.61254932,15.952131 9.61254932,15.518767 L9.61254932,13.9354519 L11.2425039,13.9354519 C11.6758679,13.9354519 12.0282624,13.582951 12.0282624,13.149587 C12.0282624,12.716223 11.6758679,12.3638073 11.2425039,12.3638073 L11.2425252,12.3638073 Z" id="路径"></path>
            </g>
        </g>
    </g>
</svg>