<?xml version="1.0" encoding="UTF-8"?>
<svg width="48px" height="48px" viewBox="0 0 48 48" version="1.1" xmlns="http://www.w3.org/2000/svg" xmlns:xlink="http://www.w3.org/1999/xlink">
    <!-- Generator: Sketch 63 (92445) - https://sketch.com -->
    <title>警告 icon@1x</title>
    <desc>Created with Sketch.</desc>
    <g id="Welcome" stroke="none" stroke-width="1" fill="none" fill-rule="evenodd">
        <g id="设计规范" transform="translate(-172.000000, -1221.000000)" fill="#E70112" fill-rule="nonzero">
            <g id="提示二" transform="translate(142.000000, 1136.000000)">
                <g id="警告-icon" transform="translate(30.000000, 85.000000)">
                    <path d="M24,0 C20.6928,0 17.5764,0.624 14.6544,1.8744 C11.7312,3.1248 9.1824,4.836 7.0104,7.0104 C4.836,9.1824 3.1248,11.7312 1.8744,14.6544 C0.6252,17.5764 0,20.6928 0,24 C0,27.3072 0.624,30.4236 1.8744,33.3456 C3.1248,36.2688 4.836,38.8176 7.0104,40.9896 C9.1824,43.164 11.7312,44.8752 14.6544,46.1256 C17.5764,47.3748 20.6928,48 24,48 C27.3072,48 30.4236,47.376 33.3456,46.1256 C36.2688,44.8752 38.8176,43.164 40.9896,40.9896 C43.164,38.8176 44.8752,36.2688 46.1256,33.3456 C47.3748,30.4236 48,27.3072 48,24 C48,20.6928 47.376,17.5764 46.1256,14.6544 C44.8752,11.7312 43.164,9.1824 40.9896,7.0104 C38.8176,4.836 36.2688,3.1248 33.3456,1.8744 C30.4236,0.6252 27.3072,0 24,0 Z M24,37.6152 C23.2625235,37.6285611 22.5523739,37.3362487 22.038,36.8076 C21.5093513,36.2932261 21.2170389,35.5830765 21.2304,34.8456 C21.2304,34.0776 21.5004,33.4236 22.038,32.8848 C22.5521688,32.3557102 23.2623447,32.0629527 24,32.076 C24.7692,32.076 25.4232,32.3448 25.962,32.8836 C26.4996,33.4224 26.7696,34.0752 26.7696,34.8444 C26.7696,35.6136 26.4996,36.2676 25.962,36.8064 C25.4476261,37.3350487 24.7374765,37.6273611 24,37.614 L24,37.6152 Z M26.7696,25.6152 C26.7696,26.3844 26.4996,27.0384 25.962,27.5772 C25.4476261,28.1058487 24.7374765,28.3981611 24,28.3848 C23.2625235,28.3981611 22.5523739,28.1058487 22.038,27.5772 C21.5093513,27.0628261 21.2170389,26.3526765 21.2304,25.6152 L21.2304,12.6912 C21.2304,11.9232 21.5004,11.2692 22.038,10.7304 C22.552579,10.2021922 23.2627022,9.91032502 24,9.924 C24.7692,9.924 25.4232,10.194 25.962,10.7316 C26.4996,11.2704 26.7696,11.9244 26.7696,12.6936 L26.7696,25.6176 L26.7696,25.6152 Z" id="形状"></path>
                </g>
            </g>
        </g>
    </g>
</svg>