<?xml version="1.0" encoding="UTF-8"?>
<svg width="75px" height="48px" viewBox="0 0 75 48" version="1.1" xmlns="http://www.w3.org/2000/svg" xmlns:xlink="http://www.w3.org/1999/xlink">
    <!-- Generator: Sketch 63 (92445) - https://sketch.com -->
    <title>分组@1x</title>
    <desc>Created with Sketch.</desc>
    <defs>
        <polygon id="path-1" points="0.000168522492 0.543818182 74.776997 0.543818182 74.776997 47.9998364 0.000168522492 47.9998364"></polygon>
    </defs>
    <g id="Page-1" stroke="none" stroke-width="1" fill="none" fill-rule="evenodd">
        <g id="组织架构" transform="translate(-93.000000, -13.000000)">
            <g id="left-top">
                <g id="分组" transform="translate(92.000000, 13.000000)">
                    <g transform="translate(0.934141, 0.000000)">
                        <mask id="mask-2" fill="white">
                            <use xlink:href="#path-1"></use>
                        </mask>
                        <g id="Clip-2"></g>
                        <path d="M13.4621437,47.9998364 C13.4621437,47.9998364 0.77189799,44.3638364 0.0364154877,33.0909273 C-0.699618764,21.8180182 9.96791214,15.8180182 14.3819106,16.3634727 C14.3819106,16.3634727 22.106408,-3.45452727 43.6246508,1.27238182 C43.6246508,1.27238182 57.7858615,4.72729091 59.9928608,15.4542 C59.9928608,15.4542 74.8901057,17.9998364 74.706373,32.7271091 C74.706373,32.7271091 76.5453552,42.3636545 61.4643775,47.9998364 L59.0736456,42.1820182 C59.0736456,42.1820182 71.2121415,39.2725636 67.1656083,28.7272909 C67.1656083,28.7272909 65.3266262,21.0909273 54.8433797,22.1818364 C54.8433797,22.1818364 51.3491482,2.72710909 29.8309054,8.54547273 C29.8309054,8.54547273 21.5546582,11.6360182 19.8994088,21.4547455 C19.8994088,21.4547455 7.20916307,21.6363818 6.84114594,31.0907455 C6.84114594,31.0907455 5.73764631,40.1818364 14.9336605,41.8182 L13.4621437,47.9998364 Z" id="Fill-1" fill="#FFFFFF" mask="url(#mask-2)"></path>
                    </g>
                    <polygon id="Fill-3" fill="#FFFFFF" points="17.2885709 48 29.4268361 16.32 36.7100193 16.32 49.0354063 48 41.1919783 48 33.1619886 26.3831772 29.053713 36.0734578 33.1619886 36.2596266 35.4029681 41.6641118 26.6256118 41.8502806 24.3846323 48"></polygon>
                    <polygon id="Fill-5" fill="#FFFFFF" points="39.4151532 17.28 41.6351262 23.04 49.0354063 23.04 46.2238105 17.28"></polygon>
                    <polygon id="Fill-7" fill="#FFFFFF" points="44.2252798 26.88 52.7366556 48 59.6176848 48 51.9217539 26.88"></polygon>
                </g>
            </g>
        </g>
    </g>
</svg>