<?xml version="1.0" encoding="UTF-8"?>
<svg width="12px" height="16px" viewBox="0 0 12 16" version="1.1" xmlns="http://www.w3.org/2000/svg" xmlns:xlink="http://www.w3.org/1999/xlink">
    <!-- Generator: Sketch 63 (92445) - https://sketch.com -->
    <title>当前位置@1x</title>
    <desc>Created with Sketch.</desc>
    <g id="Welcome" stroke="none" stroke-width="1" fill="none" fill-rule="evenodd">
        <g id="麦当劳叔叔之家" transform="translate(-279.000000, -86.000000)" fill="#4872AE" fill-rule="nonzero" stroke="#4872AE" stroke-width="0.3">
            <g id="当前位置" transform="translate(280.000000, 87.000000)">
                <g id="形状">
                    <path d="M5.89481237,13.6831046 C5.74373127,13.8867638 5.50347597,14.0047725 5.24994422,13.9998513 C4.99641247,14.0047725 4.75615717,13.8867638 4.60507607,13.6831046 C3.19634104,11.8386242 0,7.40242135 0,5.15632022 C0,2.30385053 2.34672506,0 5.24994422,0 C8.15316337,0 10.4998884,2.30472551 10.4998884,5.15632022 C10.4998884,7.37442165 7.30267241,11.8394992 5.89481237,13.6831046 Z M5.2796939,0.95023991 C2.90321916,0.95023991 0.997489404,2.8515947 0.997489404,5.15632022 C0.997489404,6.39530705 2.4937235,9.16027767 4.92707265,12.4729925 C5.00869208,12.5855472 5.14072318,12.6504161 5.2796939,12.6462406 C5.41835876,12.6501236 5.54999699,12.5852869 5.63144017,12.4729925 C8.0656643,9.18915237 9.56102342,6.42418175 9.56102342,5.15632022 C9.56102342,2.8515947 7.62554398,0.95023991 5.2796939,0.95023991 L5.2796939,0.95023991 Z M3.0502176,4.83957358 C3.0502176,3.62946143 4.047707,2.65034684 5.2796939,2.65034684 C6.51080582,2.65034684 7.50829522,3.63033642 7.50829522,4.83957358 C7.50829522,6.04968573 6.51080582,7.02880032 5.2796939,7.02880032 C4.04770699,7.02880032 3.0502176,6.04881074 3.0502176,4.83957358 Z M6.54055551,4.83957358 C6.54055551,4.14833092 5.98318643,3.60058675 5.2796939,3.60058675 C4.57532638,3.60058675 4.0179573,4.14833092 4.0179573,4.83957358 C4.0179573,5.53081624 4.57532638,6.07856041 5.2796939,6.07856041 C5.98318643,6.07856041 6.53968052,5.53081624 6.53968052,4.83957358 L6.54055551,4.83957358 Z"></path>
                </g>
            </g>
        </g>
    </g>
</svg>