<?xml version="1.0" encoding="UTF-8"?>
<svg width="16px" height="16px" viewBox="0 0 16 16" version="1.1" xmlns="http://www.w3.org/2000/svg" xmlns:xlink="http://www.w3.org/1999/xlink">
    <!-- Generator: Sketch 63 (92445) - https://sketch.com -->
    <title>Fill 1@1x</title>
    <desc>Created with Sketch.</desc>
    <g id="Welcome" stroke="none" stroke-width="1" fill="none" fill-rule="evenodd">
        <g id="麦当劳叔叔之家" transform="translate(-1355.000000, -142.000000)" fill="#FFFFFF">
            <g id="分组-4" transform="translate(300.000000, 134.000000)">
                <g id="编组-2" transform="translate(1040.000000, 0.000000)">
                    <path d="M30.7657924,22.1414888 L27.7604059,19.1327776 C28.5850222,17.9784321 29.0765341,16.5703407 29.0765341,15.0460533 C29.0765341,11.1601147 25.9199114,8 22.038267,8 C18.1566226,8 15,11.1601147 15,15.0460533 C15,18.9319919 18.1566226,22.0921067 22.038267,22.0921067 C23.5514765,22.0921067 24.9509323,21.6071385 26.0993512,20.7910138 L29.1082201,23.8032114 C29.335819,24.0309474 29.8156003,24.0791598 30.0443677,23.8513092 L30.8737266,23.0210327 C31.1012338,22.7908655 30.9945368,22.3716561 30.7657924,22.1414888 Z M16.1718569,15.0460533 C16.1718569,11.8084363 18.8030593,9.17432311 22.0370986,9.17432311 C25.2712524,9.17432311 27.9023402,11.8084363 27.9023402,15.0460533 C27.9023402,18.2837621 25.2712524,20.9177836 22.0370986,20.9177836 C18.8030593,20.9177836 16.1718569,18.2837621 16.1718569,15.0460533 Z" id="Fill-1"></path>
                </g>
            </g>
        </g>
    </g>
</svg>