<?xml version="1.0" encoding="UTF-8"?>
<svg width="14px" height="16px" viewBox="0 0 14 16" version="1.1" xmlns="http://www.w3.org/2000/svg" xmlns:xlink="http://www.w3.org/1999/xlink">
    <!-- Generator: Sketch 63 (92445) - https://sketch.com -->
    <title>Fill 1</title>
    <desc>Created with Sketch.</desc>
    <g id="Welcome" stroke="none" stroke-width="1" fill="none" fill-rule="evenodd">
        <g id="志愿者管理-志愿者信息（个人）" transform="translate(-555.000000, -336.000000)" fill="#FFFFFF">
            <g id="编组-5" transform="translate(300.000000, 328.000000)">
                <g id="编组-3" transform="translate(240.000000, 0.000000)">
                    <path d="M26.9999791,10.0000519 L25.4999329,10.0000519 L25.4999329,10.9999802 L26.9999791,10.9999802 C27.5499537,10.9999802 27.9999773,11.4500297 27.9999773,12.0000061 L27.9999773,22.0000519 C27.9999773,22.5500466 27.5499537,22.9999741 26.9999791,22.9999741 L17.0000453,22.9999741 C16.4499731,22.9999741 16.0000227,22.5500466 16.0000227,22.0000519 L16.0000227,12.0000061 C16.0000227,11.4500297 16.4499731,10.9999802 17.0000453,10.9999802 L18.4999695,10.9999802 L18.4999695,10.0000519 L17.0000453,10.0000519 C15.899974,10.0000519 15,10.9000288 15,12.0000061 L15,22.0000519 C15,23.100023 15.899974,24 17.0000453,24 L26.9999791,24 C28.0999283,24 29,23.100023 29,22.0000519 L29,12.0000061 C29,10.9000288 28.0999283,10.0000519 26.9999791,10.0000519 Z M18.1499701,17.3999899 L21.5999885,20.8500196 C21.7000371,20.9500686 21.8499392,21.0000198 21.9999634,21.0000198 C22.1499631,21.0000198 22.2500118,20.9500686 22.4000115,20.8500196 L25.8499323,17.3999899 C26.0500051,17.200014 26.0500051,16.8999892 25.8499323,16.7000133 C25.649957,16.500013 25.3500308,16.500013 25.1499335,16.7000133 L22.4999625,19.3000172 L22.4999625,8.5 C22.4999625,8.19997589 22.2999873,8 21.9999634,8 C21.7000371,8 21.4999398,8.19997589 21.4999398,8.5 L21.4999398,19.3000172 L18.8999444,16.7000133 C18.6999691,16.500013 18.4000429,16.500013 18.1999456,16.7000133 C17.9999704,16.8500135 17.9999704,17.200014 18.1499701,17.3999899 Z" id="Fill-1"></path>
                </g>
            </g>
        </g>
    </g>
</svg>