<?xml version="1.0" encoding="UTF-8"?>
<svg width="16px" height="15px" viewBox="0 0 16 15" version="1.1" xmlns="http://www.w3.org/2000/svg" xmlns:xlink="http://www.w3.org/1999/xlink">
    <!-- Generator: Sketch 63 (92445) - https://sketch.com -->
    <title>分组 2</title>
    <desc>Created with Sketch.</desc>
    <defs>
        <polygon id="path-1" points="0.00139214502 0.00453172205 15.3989801 0.00453172205 15.3989801 14.977364 0.00139214502 14.977364"></polygon>
    </defs>
    <g id="Welcome" stroke="none" stroke-width="1" fill="none" fill-rule="evenodd">
        <g id="麦当劳叔叔之家" transform="translate(-1762.000000, -143.000000)">
            <g id="分组-4" transform="translate(300.000000, 134.000000)">
                <g id="编组-3" transform="translate(1448.000000, 0.000000)">
                    <g id="分组-2" transform="translate(14.000000, 9.000000)">
                        <g id="分组">
                            <mask id="mask-2" fill="white">
                                <use xlink:href="#path-1"></use>
                            </mask>
                            <g id="Clip-2"></g>
                            <path d="M7.69949003,0.00453172205 C3.44692785,0.00453172205 0,3.35623867 0,7.49089124 C0,11.6256571 3.44692785,14.977364 7.69949003,14.977364 C11.9520522,14.977364 15.3989801,11.6256571 15.3989801,7.49089124 C15.3989801,3.35623867 11.9520522,0.00453172205 7.69949003,0.00453172205 Z M7.69949003,13.9368353 C4.03903033,13.9368353 1.07102356,11.0510574 1.07102356,7.49089124 C1.07102356,3.93083837 4.03903033,1.04682779 7.69949003,1.04682779 C11.3599497,1.04682779 14.3279565,3.93260574 14.3279565,7.49089124 C14.3261235,11.0510574 11.3599497,13.9368353 7.69949003,13.9368353 Z" id="Fill-1" fill="#FFFFFF" mask="url(#mask-2)"></path>
                        </g>
                        <path d="M8.13943106,11.3664879 C8.13943106,11.4661631 8.05585595,11.5477568 7.95381172,11.5477568 L7.42477341,11.5495468 C7.32272918,11.5495468 7.23915408,11.4680211 7.23915408,11.3682779 L7.259549,3.6153852 C7.259549,3.51573263 7.34310091,3.43411631 7.44516834,3.43411631 L7.97420665,3.43234894 C8.07625088,3.43234894 8.15982598,3.51387462 8.15982598,3.61361782 L8.13943106,11.3664879 Z" id="Fill-3" fill="#FFFFFF"></path>
                        <path d="M11.6642958,6.99967523 C11.7664329,6.99967523 11.8499152,7.08126888 11.8499152,7.18094411 L11.8518178,7.82263595 C11.8518178,7.92237915 11.7682427,8.00390483 11.6661984,8.00390483 L3.73278163,7.98036254 C3.6307142,7.98036254 3.5471623,7.89874622 3.5471623,7.79909366 L3.54535251,7.15740181 C3.54535251,7.05772659 3.6288116,6.97613293 3.73097184,6.97613293 L11.6642958,6.99967523 Z" id="Fill-4" fill="#FFFFFF"></path>
                    </g>
                </g>
            </g>
        </g>
    </g>
</svg>