<?xml version="1.0" encoding="UTF-8"?>
<svg width="20px" height="20px" viewBox="0 0 20 20" version="1.1" xmlns="http://www.w3.org/2000/svg" xmlns:xlink="http://www.w3.org/1999/xlink">
    <!-- Generator: Sketch 63 (92445) - https://sketch.com -->
    <title>密码@2x</title>
    <desc>Created with Sketch.</desc>
    <g id="密码" stroke="none" stroke-width="1" fill="none" fill-rule="evenodd">
        <path d="M9.78946523,11.7413936 L10.2105153,11.7413936 C10.5591566,11.7413936 10.8421099,12.0448671 10.8421099,12.4187757 L10.8421099,15.579913 C10.8421099,15.9538423 10.5591566,16.2572951 10.2101062,16.2572951 L9.78905614,16.2572951 C9.44000575,16.2572951 9.15746155,15.9538216 9.15746155,15.579913 L9.15746155,12.4187757 C9.15789012,12.0448464 9.44041484,11.7413936 9.78946523,11.7413936 L9.78946523,11.7413936 L9.78946523,11.7413936 Z M16.7368693,9.4834325 L16.7368693,17.6283487 C16.7368693,18.1174207 16.3595917,18.5152769 15.8947497,18.5152769 L4.10526982,18.5152769 C3.64083683,18.5152769 3.26316969,18.1174207 3.26316969,17.6283487 L3.26316969,9.4834325 L16.7368693,9.4834325 L16.7368693,9.4834325 Z M18,8.12864756 L2,8.12864756 L2,17.628328 C2,18.8666041 2.94230748,19.8700412 4.10525034,19.8700412 L15.8947302,19.8700412 C17.057673,19.8700412 18,18.8666041 18,17.628328 L18,8.12864756 L18,8.12864756 Z M16.3157997,8.12864756 L15.0526495,8.12864756 L15.0526495,6.77388331 C15.0526495,3.72743344 12.6808679,1.35478494 10.0000097,1.35478494 C7.25307395,1.35478494 4.94736996,3.827239 4.94736996,6.77388331 L4.94736996,8.12864756 L3.68421975,8.12864756 L3.68421975,6.77388331 C3.68421975,3.08031174 6.55621992,0 10.0000097,0 C13.4004361,0 16.3157997,2.95475791 16.3157997,6.77388331 L16.3157997,8.12864756 Z" id="形状" fill="#A8A8A8" fill-rule="nonzero"></path>
    </g>
</svg>