<?xml version="1.0" encoding="UTF-8"?>
<svg width="20px" height="20px" viewBox="0 0 20 20" version="1.1" xmlns="http://www.w3.org/2000/svg" xmlns:xlink="http://www.w3.org/1999/xlink">
    <!-- Generator: Sketch 63 (92445) - https://sketch.com -->
    <title>验证码@2x</title>
    <desc>Created with Sketch.</desc>
    <g id="验证码" stroke="none" stroke-width="1" fill="none" fill-rule="evenodd">
        <path d="M15.3261801,5.46338526 C15.1444234,5.46338526 14.9747341,5.53549252 14.8465077,5.66733727 L9.49751486,11.1760535 L6.94795049,8.5505843 C6.8197241,8.41864019 6.65003471,8.34655777 6.46827809,8.34655777 C6.28792127,8.34655777 6.11813534,8.41864019 5.98990896,8.5505843 C5.8617067,8.68255325 5.79164437,8.85729474 5.79164437,9.04291566 C5.79164437,9.22861109 5.8617067,9.40327807 5.98990896,9.53522218 L9.0192664,12.6554072 C9.14746865,12.7862088 9.31727871,12.8594586 9.4976114,12.8594586 C9.67816129,12.8594586 9.84785068,12.7862088 9.97728379,12.6554072 L15.8044285,6.65324193 C15.9327515,6.52263912 16.0026931,6.34789763 16.0026931,6.16100993 C16.0026931,5.97521514 15.9327515,5.79813879 15.8044285,5.66733727 C15.6762263,5.53549252 15.5065369,5.46338526 15.3261801,5.46338526 Z M15.5479999,1.55282716 L15.5088779,1.55282716 C13.3899689,1.55282716 11.6118384,1.30473647 10.503053,0 C9.39552263,1.30473647 7.60899335,1.55282716 5.48187857,1.55282716 C2.09400372,1.55282716 2.00123086,5.039485 2.00123086,5.039485 C2.00123086,6.98806998 2,8.84624144 2,12.8729461 C2,15.1329858 7.25177921,19.2537304 10.1208597,19.9550312 C10.3665485,20.0147936 10.6171366,20.0147936 10.8628254,19.9561987 C13.753289,19.2598408 19,15.1611282 19,12.8741135 L19,5.04065243 C19,2.49951124 17.7951595,1.55282716 15.5479999,1.55282716 Z M17.784492,12.8741135 C17.784492,14.1715474 13.6214907,17.791441 10.962549,18.6367327 C10.6574894,18.7332815 10.3274265,18.7332815 10.0234772,18.6367327 C7.36219436,17.78774 3.21548382,14.1678712 3.21548382,12.8729461 L3.19805874,7.54878276 L3.21548382,5.07984818 C3.22255521,4.84765437 3.33333239,2.80378747 5.48187857,2.80378747 C7.27422425,2.80378747 9.09166978,2.64620964 10.503053,1.65906303 C11.9133261,2.64620964 13.730675,2.80378747 15.5479999,2.80378747 C17.2621258,2.80378747 17.784492,3.32667064 17.784492,5.04065243 L17.784492,12.8741135 Z" id="Fill-1" fill="#A8A8A8"></path>
    </g>
</svg>