<?xml version="1.0" encoding="UTF-8"?>
<svg width="20px" height="20px" viewBox="0 0 20 20" version="1.1" xmlns="http://www.w3.org/2000/svg" xmlns:xlink="http://www.w3.org/1999/xlink">
    <!-- Generator: Sketch 63 (92445) - https://sketch.com -->
    <title>账号@2x</title>
    <desc>Created with Sketch.</desc>
    <g id="账号" stroke="none" stroke-width="1" fill="none" fill-rule="evenodd">
        <path d="M19,17.9150466 C19,14.2549589 16.8149467,11.1055939 13.6783663,9.69913498 C14.8245751,8.6829094 15.5472651,7.1995915 15.5472651,5.54725569 C15.5472651,2.48360054 13.0636646,0 10,0 C6.9363543,0 4.45275377,2.48360054 4.45275377,5.5472746 C4.45275377,7.19962932 5.17542492,8.6829094 6.32165263,9.69915389 C3.18505331,11.1056128 1,14.2549589 1,17.9150466 C1,17.9505447 1.00026477,17.986005 1.00066193,18.0214275 L1.00066193,19.0840635 L19,19.0840635 L19,18.0214275 L18.9993381,18.0214275 C18.9997541,17.986005 19,17.9505447 19,17.9150466 Z M5.43983572,5.5472746 C5.43983572,3.02876223 7.48149709,0.987119774 10.0000095,0.987119774 C12.5185218,0.987119774 14.5601832,3.02876223 14.5601832,5.5472746 C14.5601832,8.06578697 12.5185218,10.1074294 10.0000095,10.1074294 C7.48149709,10.1074294 5.43983572,8.06576806 5.43983572,5.54729351 L5.43983572,5.5472746 Z M2.20708701,18.0214275 C2.2066023,17.9859692 2.20633053,17.9505082 2.20633053,17.9150466 C2.20633053,14.4713329 4.43998806,11.5496891 7.53742032,10.5188822 C8.27945752,10.8871396 9.11545028,11.0945303 10.0000095,11.0945303 C10.8845686,11.0945303 11.7205614,10.8871396 12.4625986,10.5188822 C15.5600119,11.5496891 17.7936695,14.4713329 17.7936695,17.9150466 C17.7936695,17.9505447 17.7933858,17.986005 17.792913,18.0214275 L2.2070681,18.0214275 L2.20708701,18.0214275 Z" id="形状" stroke="#A8A8A8" stroke-width="0.2" fill="#A8A8A8" fill-rule="nonzero"></path>
    </g>
</svg>