<?xml version="1.0" encoding="UTF-8"?>
<svg width="16px" height="16px" viewBox="0 0 16 16" version="1.1" xmlns="http://www.w3.org/2000/svg" xmlns:xlink="http://www.w3.org/1999/xlink">
    <!-- Generator: Sketch 63 (92445) - https://sketch.com -->
    <title>退出</title>
    <desc>Created with Sketch.</desc>
    <g id="Welcome" stroke="none" stroke-width="1" fill="none" fill-rule="evenodd">
        <g id="基础信息-模版字段管理" transform="translate(-1850.000000, -24.000000)" fill="#666666">
            <g id="编组-2" transform="translate(260.000000, 0.000000)">
                <g id="header" transform="translate(1466.000000, 18.000000)">
                    <g id="退出" transform="translate(124.000000, 6.000000)">
                        <path d="M3.21647439,4.19665768 C2.72657682,4.75217251 2.31771429,5.38003235 2.05718598,6.07695957 C1.67249596,7.10341779 1.57421024,8.22984367 1.76912129,9.30801078 C1.96756873,10.4034501 2.46949865,11.4333585 3.20957412,12.2647978 C3.37170889,12.4459084 3.54421563,12.6184151 3.72709434,12.7806361 C6.24739623,15.0094016 10.0977898,14.7730674 12.3247871,12.2509973 C14.5518922,9.72892722 14.3173046,5.88036658 11.7952345,3.65328302 C11.5881833,3.47040431 11.3725499,3.30650135 11.1483342,3.15648518 C11,3.00461456 10.9085283,2.7958814 10.9119784,2.56297574 C10.9206469,2.09727224 11.3053369,1.72116442 11.7728302,1.72116442 C11.8987601,1.72116442 12.0177682,1.75049057 12.1247439,1.80051752 C12.3921078,1.98337466 12.6526361,2.18175741 12.9010243,2.40260916 C16.1131213,5.24207008 16.4150081,10.1481402 13.5754609,13.3602372 C10.7377898,16.5688841 5.83338005,16.8707709 2.62128302,14.03131 C-0.590727763,11.1917628 -0.892614555,6.28569272 1.94684636,3.07368194 C2.40219946,2.55961186 2.90945553,2.11967655 3.45628032,1.75570889 C3.56493801,1.71258221 3.68228571,1.6901779 3.80642588,1.69530997 C4.2722372,1.71426415 4.62583288,2.10762264 4.5982965,2.57334771 C4.5827062,2.82173585 4.46201617,3.04081941 4.28081941,3.1874717 C3.90136927,3.49280863 3.5407655,3.82923989 3.21647439,4.19665768 Z" id="Fill-1"></path>
                        <path d="M7.76204852,7.61224798 C7.26003235,7.61224798 6.85116981,7.2017035 6.85116981,6.70145553 L6.85116981,0.92761186 C6.85116981,0.425681941 7.26180054,0.016819407 7.76204852,0.016819407 C8.26406469,0.016819407 8.67284666,0.427363881 8.67284666,0.92761186 L8.67284666,6.69977358 C8.67460916,7.2017035 8.26406469,7.61224798 7.76204852,7.61224798 Z" id="Fill-3"></path>
                    </g>
                </g>
            </g>
        </g>
    </g>
</svg>